<svg id="Layer_1" data-name="Layer 1" xmlns="http://www.w3.org/2000/svg" viewBox="0 0 100 100"><defs><style>.cls-1{fill:#fff;}.cls-2{fill:#a4a5a6;}.cls-3{fill:#020101;}.cls-4{fill:#fdfdfd;}.cls-5{fill:#fcfcfc;}.cls-6{fill:#f17e24;}</style></defs><rect class="cls-1" width="100" height="100"/><path class="cls-2" d="M50.25,77.79a69.85,69.85,0,0,1-20.43-2.92A47.74,47.74,0,0,1,15.39,67.8a27.56,27.56,0,0,1-8-8.9A18.17,18.17,0,0,1,5.05,48.65a19.23,19.23,0,0,1,3.5-9.54,31.11,31.11,0,0,1,9.29-8.59,52.21,52.21,0,0,1,15.67-6.41,67.13,67.13,0,0,1,8.67-1.49,74.8,74.8,0,0,1,13.55-.18,64.76,64.76,0,0,1,16.41,3.33,45,45,0,0,1,13.8,7.47,25.25,25.25,0,0,1,7.18,8.81,17.93,17.93,0,0,1-.88,17.54,28.08,28.08,0,0,1-8.54,8.85,49.59,49.59,0,0,1-14.82,6.79,66.74,66.74,0,0,1-11.82,2.21C54.69,77.67,52.32,77.76,50.25,77.79Zm-.34-1.39A71,71,0,0,0,58,75.93,62.6,62.6,0,0,0,69.69,73.5,46.67,46.67,0,0,0,83.22,67a26.64,26.64,0,0,0,7.84-8.39,16.59,16.59,0,0,0,1.58-13.64,20.69,20.69,0,0,0-5.17-8.3,35.64,35.64,0,0,0-10.14-7.15,60.92,60.92,0,0,0-24.16-5.82A70.59,70.59,0,0,0,42.89,24a64.24,64.24,0,0,0-10.21,1.82,50.09,50.09,0,0,0-14.82,6.41,29.42,29.42,0,0,0-8,7.45,18.15,18.15,0,0,0-3.42,8.54A16.59,16.59,0,0,0,8.41,58a25.66,25.66,0,0,0,7.34,8.37,45.44,45.44,0,0,0,14.56,7.23A66.36,66.36,0,0,0,49.91,76.4Z"/><path class="cls-3" d="M49.91,76.4a66.36,66.36,0,0,1-19.6-2.84,45.44,45.44,0,0,1-14.56-7.23A25.66,25.66,0,0,1,8.41,58a16.59,16.59,0,0,1-1.93-9.79A18.15,18.15,0,0,1,9.9,39.63a29.42,29.42,0,0,1,8-7.45,50.09,50.09,0,0,1,14.82-6.41A64.24,64.24,0,0,1,42.89,24a70.59,70.59,0,0,1,10.28-.29,60.92,60.92,0,0,1,24.16,5.82,35.64,35.64,0,0,1,10.14,7.15,20.69,20.69,0,0,1,5.17,8.3,16.59,16.59,0,0,1-1.58,13.64A26.64,26.64,0,0,1,83.22,67,46.67,46.67,0,0,1,69.69,73.5,62.6,62.6,0,0,1,58,75.93,71,71,0,0,1,49.91,76.4Zm-16-28.17V45a1.5,1.5,0,0,0-1.54-1.55H26c-.25,0-.32.07-.32.31,0,1,0,1.91,0,2.87,0,.3.1.35.37.34h3.2c.24,0,.33.05.32.31,0,.8,0,1.61,0,2.41,0,.22-.06.3-.26.37a8.2,8.2,0,0,1-3.9.37,5,5,0,0,1-3.38-1.92,6,6,0,0,1-.89-5.77,4.91,4.91,0,0,1,3.7-3.46,6.75,6.75,0,0,1,5.66,1.07c.21.14.3.15.46-.06.66-.89,1.32-1.78,2-2.65.19-.23.16-.33-.07-.51a10.82,10.82,0,0,0-8.86-1.86,9.53,9.53,0,0,0-8,9.53,9.24,9.24,0,0,0,3.45,7.49,11.07,11.07,0,0,0,14.18-.43.5.5,0,0,0,.17-.43Zm40.86-.4h.07l.18.32c.78,1.36,1.45,2.79,2.33,4.09a5.43,5.43,0,0,0,7.85,1.31c.28-.22.37-.4.17-.74-.39-.71-.74-1.45-1.09-2.19-.1-.21-.18-.25-.41-.14a2.18,2.18,0,0,1-3.11-1c-.52-.86-1-1.74-1.51-2.6a.34.34,0,0,1,0-.44c.8-1,1.59-2.07,2.38-3.1.61-.8,1.21-1.61,1.83-2.4a.61.61,0,0,0,.11-.6c0-.21-.28-.09-.42-.09H79a.41.41,0,0,0-.43.2c-1.14,1.84-2.37,3.61-3.6,5.39,0,.08-.08.21-.23.22V37c0-1.14-.52-1.65-1.66-1.65-.83,0-1.66,0-2.49,0-.25,0-.34.06-.34.33q0,9.15,0,18.29c0,.24,0,.32.31.32,1.28,0,2.56,0,3.85,0,.3,0,.34-.11.34-.37,0-1.9,0-3.79,0-5.69Zm-29.2.27h5.16c.43,0,.63-.2.63-.61s0-.9,0-1.35a7.49,7.49,0,0,0-3.62-6.09,7.66,7.66,0,0,0-5-1,7.3,7.3,0,0,0-5.62,3.47A8.05,8.05,0,0,0,36,48a7.39,7.39,0,0,0,3.72,5.71,9.06,9.06,0,0,0,9.91-1c.19-.16.2-.25,0-.41-.78-.64-1.54-1.29-2.3-1.94-.14-.12-.23-.17-.42-.06a5.33,5.33,0,0,1-4.57.43,3.06,3.06,0,0,1-2.17-2.25c-.07-.31,0-.38.31-.38C42.15,48.11,43.86,48.1,45.57,48.1Zm17,0h5.2a.54.54,0,0,0,.62-.61c0-.4,0-.81,0-1.21a7.58,7.58,0,0,0-2.83-5.68,7.68,7.68,0,0,0-5.88-1.55,7.32,7.32,0,0,0-5.36,3.12A8.09,8.09,0,0,0,53,48.06a7.39,7.39,0,0,0,3.74,5.65,9.07,9.07,0,0,0,9.91-1c.17-.14.17-.21,0-.36-.77-.64-1.54-1.28-2.3-1.94a.37.37,0,0,0-.51,0,5.35,5.35,0,0,1-5.19.08,2.8,2.8,0,0,1-1.48-1.9c-.07-.28-.05-.42.31-.42C59.18,48.11,60.87,48.1,62.57,48.1Zm-22,10.32a8.19,8.19,0,0,0-1.47.13,2.79,2.79,0,0,0-2.33,2.09,5.73,5.73,0,0,0-.13,2.76,3,3,0,0,0,2.93,2.74,6.33,6.33,0,0,0,2-.08.66.66,0,0,1,.8.34,9.11,9.11,0,0,0,.68.95c.31.43.44.45.84.12.2-.15.38-.32.59-.47s.15-.19,0-.34c-.25-.33-.46-.69-.72-1s-.4-.6,0-.94a.92.92,0,0,0,.21-.43,6,6,0,0,0,.3-2.41,3.77,3.77,0,0,0-.82-2.37A3.53,3.53,0,0,0,40.59,58.42Zm25.31,4v3.39c0,.16,0,.31.22.3a23,23,0,0,0,4.39-.2,2.53,2.53,0,0,0,2.08-2,6.8,6.8,0,0,0,.09-2.84,2.62,2.62,0,0,0-2.3-2.34,21.3,21.3,0,0,0-4.07-.16c-.31,0-.42.17-.42.48C65.91,60.19,65.9,61.3,65.9,62.4Zm-12.14-1h0c0-.82,0-1.64,0-2.45,0-.26-.07-.32-.32-.32a4.23,4.23,0,0,1-1.12-.05c-.15,0-.25.09-.27.25s0,.25,0,.37c0,1.36,0,2.72,0,4.07a1.23,1.23,0,0,1-.88,1.3,3.49,3.49,0,0,1-1.67,0,.93.93,0,0,1-.63-.55,2.44,2.44,0,0,1-.23-1.13c0-1.26,0-2.53,0-3.8,0-.32-.13-.46-.44-.46s-.7,0-1,0-.24.1-.24.28c0,1.6,0,3.21,0,4.82A2.31,2.31,0,0,0,49,66.13a7.23,7.23,0,0,0,2.54,0,2.34,2.34,0,0,0,2.27-2.59C53.75,62.87,53.76,62.15,53.76,61.44ZM31,66.18A9,9,0,0,0,32.64,66a1.84,1.84,0,0,0,1.56-1.61,1.88,1.88,0,0,0-.63-2.09,3.38,3.38,0,0,0-1.23-.45c-.68-.14-1.38-.23-2.06-.38-.48-.11-.68-.36-.67-.73s.22-.6.72-.73a4.66,4.66,0,0,1,1.93.1c.33.05.61.42.94.22s.38-.55.6-.81.12-.35-.14-.48a6.53,6.53,0,0,0-4.15-.47,1.88,1.88,0,0,0-1.6,1.71c-.14,1.45.28,2.16,1.64,2.47a21.16,21.16,0,0,0,2.23.37.92.92,0,0,1,.84.72.77.77,0,0,1-.73.85,4.53,4.53,0,0,1-2.77-.2c-.94-.4-.91-.41-1.49.47-.18.27-.11.38.14.51A7.36,7.36,0,0,0,31,66.18Zm25-.09a4.82,4.82,0,0,1,.66,0,1.11,1.11,0,0,0,1.49-1c0-.17.13-.24.32-.24,1,0,1.93,0,2.9,0,.16,0,.28,0,.3.21.12.94.73,1.14,1.55,1a.38.38,0,0,1,.15,0c.34,0,.36-.08.24-.37-.93-2.27-1.84-4.55-2.75-6.83-.09-.22-.19-.32-.43-.31a9.91,9.91,0,0,1-1.09,0,.41.41,0,0,0-.45.3c-.36.94-.75,1.88-1.13,2.82C57.1,63.14,56.53,64.58,55.92,66.09Zm20.48-7h.08v.92c0,.1,0,.18.14.18s.13-.09.13-.18c0-.31,0-.63,0-.94,0-.15.13-.38-.14-.43s-.27.2-.35.35a4.88,4.88,0,0,1-.39.8c-.15-.36-.29-.66-.42-1a.23.23,0,0,0-.28-.17c-.18,0-.14.14-.14.25V60c0,.09,0,.21.13.21s.13-.13.13-.22c0-.29,0-.58,0-.88a4.6,4.6,0,0,1,.45.92c0,.07,0,.18.16.18S76,60.12,76,60Zm-2.5.39c0,.17,0,.33,0,.49s0,.22.12.23.15-.14.15-.24v-.68c0-.25,0-.53.36-.45.06,0,.14,0,.14-.09s-.07-.09-.14-.09h-.94c-.07,0-.18,0-.19.07s.12.12.19.11c.3,0,.33.12.31.35S73.9,59.41,73.9,59.51Z"/><path class="cls-4" d="M33.91,48.23v3.2a.5.5,0,0,1-.17.43,11.07,11.07,0,0,1-14.18.43,9.24,9.24,0,0,1-3.45-7.49,9.53,9.53,0,0,1,8-9.53,10.82,10.82,0,0,1,8.86,1.86c.23.18.26.28.07.51-.68.87-1.34,1.76-2,2.65-.16.21-.25.2-.46.06a6.75,6.75,0,0,0-5.66-1.07,4.91,4.91,0,0,0-3.7,3.46,6,6,0,0,0,.89,5.77,5,5,0,0,0,3.38,1.92,8.2,8.2,0,0,0,3.9-.37c.2-.07.27-.15.26-.37,0-.8,0-1.61,0-2.41,0-.26-.08-.31-.32-.31h-3.2c-.27,0-.37,0-.37-.34,0-1,0-1.91,0-2.87,0-.24.07-.31.32-.31h6.33A1.5,1.5,0,0,1,33.91,45Z"/><path class="cls-5" d="M74.77,47.83v.41c0,1.9,0,3.79,0,5.69,0,.26,0,.37-.34.37-1.29,0-2.57,0-3.85,0-.26,0-.31-.08-.31-.32q0-9.15,0-18.29c0-.27.09-.33.34-.33.83,0,1.66,0,2.49,0,1.14,0,1.66.51,1.66,1.65v9.06c.15,0,.18-.14.23-.22,1.23-1.78,2.46-3.55,3.6-5.39a.41.41,0,0,1,.43-.2h4.15c.14,0,.37-.12.42.09a.61.61,0,0,1-.11.6c-.62.79-1.22,1.6-1.83,2.4-.79,1-1.58,2.07-2.38,3.1a.34.34,0,0,0,0,.44c.51.86,1,1.74,1.51,2.6a2.18,2.18,0,0,0,3.11,1c.23-.11.31-.07.41.14.35.74.7,1.48,1.09,2.19.2.34.11.52-.17.74a5.43,5.43,0,0,1-7.85-1.31c-.88-1.3-1.55-2.73-2.33-4.09l-.18-.32Z"/><path class="cls-4" d="M45.57,48.1c-1.71,0-3.42,0-5.13,0-.31,0-.38.07-.31.38a3.06,3.06,0,0,0,2.17,2.25,5.33,5.33,0,0,0,4.57-.43c.19-.11.28-.06.42.06.76.65,1.52,1.3,2.3,1.94.2.16.19.25,0,.41a9.06,9.06,0,0,1-9.91,1A7.39,7.39,0,0,1,36,48a8.05,8.05,0,0,1,1.09-5.46,7.3,7.3,0,0,1,5.62-3.47,7.66,7.66,0,0,1,5,1,7.49,7.49,0,0,1,3.62,6.09c0,.45,0,.9,0,1.35s-.2.61-.63.61Zm-1.89-2.49H47c.25,0,.31,0,.26-.31a3.34,3.34,0,0,0-3-2.68,3.72,3.72,0,0,0-4.12,2.66c-.07.28,0,.33.27.33Z"/><path class="cls-4" d="M62.57,48.1c-1.7,0-3.39,0-5.09,0-.36,0-.38.14-.31.42a2.8,2.8,0,0,0,1.48,1.9,5.35,5.35,0,0,0,5.19-.08.37.37,0,0,1,.51,0c.76.66,1.53,1.3,2.3,1.94.17.15.17.22,0,.36a9.07,9.07,0,0,1-9.91,1A7.39,7.39,0,0,1,53,48.06a8.09,8.09,0,0,1,1.3-5.89,7.32,7.32,0,0,1,5.36-3.12,7.68,7.68,0,0,1,5.88,1.55,7.58,7.58,0,0,1,2.83,5.68c0,.4,0,.81,0,1.21a.54.54,0,0,1-.62.61Zm-5.4-2.49h7c.24,0,.25-.09.21-.29a3.17,3.17,0,0,0-2.16-2.5A3.8,3.8,0,0,0,57.17,45.61Z"/><path class="cls-6" d="M40.59,58.42a3.53,3.53,0,0,1,2.89,1.08,3.77,3.77,0,0,1,.82,2.37,6,6,0,0,1-.3,2.41.92.92,0,0,1-.21.43c-.38.34-.25.62,0,.94s.47.68.72,1c.11.15.11.23,0,.34s-.39.32-.59.47c-.4.33-.53.31-.84-.12a9.11,9.11,0,0,1-.68-.95.66.66,0,0,0-.8-.34,6.33,6.33,0,0,1-2,.08,3,3,0,0,1-2.93-2.74,5.73,5.73,0,0,1,.13-2.76,2.79,2.79,0,0,1,2.33-2.09A8.19,8.19,0,0,1,40.59,58.42Zm1.92,4.06c0-1.53-.46-2.12-1.73-2.31a3.47,3.47,0,0,0-1.16.06,1.63,1.63,0,0,0-1.37,1.37,3.41,3.41,0,0,0,0,1.35c.14.59.29,1.23,1,1.5a2.93,2.93,0,0,0,2.12.09,1.46,1.46,0,0,0,1-1A3.24,3.24,0,0,0,42.51,62.48Z"/><path class="cls-6" d="M65.9,62.4c0-1.1,0-2.21,0-3.32,0-.31.11-.48.42-.48a21.3,21.3,0,0,1,4.07.16,2.62,2.62,0,0,1,2.3,2.34,6.8,6.8,0,0,1-.09,2.84,2.53,2.53,0,0,1-2.08,2,23,23,0,0,1-4.39.2c-.24,0-.22-.14-.22-.3Zm2.9-2.33h-.86c-.15,0-.24,0-.24.2,0,1.35,0,2.71,0,4.06,0,.14,0,.21.2.2a13.6,13.6,0,0,0,1.91-.06A1.26,1.26,0,0,0,71,63.27a5.9,5.9,0,0,1,.15-.73,2.54,2.54,0,0,0,0-1.34,1.28,1.28,0,0,0-1.09-1.05A7.67,7.67,0,0,0,68.8,60.07Z"/><path class="cls-6" d="M53.76,61.44c0,.71,0,1.43,0,2.14a2.34,2.34,0,0,1-2.27,2.59,7.23,7.23,0,0,1-2.54,0,2.31,2.31,0,0,1-2.05-2.36c0-1.61,0-3.22,0-4.82,0-.18,0-.29.24-.28s.7,0,1,0,.45.14.44.46c0,1.27,0,2.54,0,3.8a2.44,2.44,0,0,0,.23,1.13.93.93,0,0,0,.63.55,3.49,3.49,0,0,0,1.67,0,1.23,1.23,0,0,0,.88-1.3c0-1.35,0-2.71,0-4.07,0-.12,0-.25,0-.37s.12-.29.27-.25a4.23,4.23,0,0,0,1.12.05c.25,0,.33.06.32.32,0,.81,0,1.63,0,2.45Z"/><path class="cls-6" d="M31,66.18a7.36,7.36,0,0,1-3.19-.74c-.25-.13-.32-.24-.14-.51.58-.88.55-.87,1.49-.47a4.53,4.53,0,0,0,2.77.2.77.77,0,0,0,.73-.85.92.92,0,0,0-.84-.72,21.16,21.16,0,0,1-2.23-.37c-1.36-.31-1.78-1-1.64-2.47a1.88,1.88,0,0,1,1.6-1.71,6.53,6.53,0,0,1,4.15.47c.26.13.35.24.14.48s-.32.64-.6.81-.61-.17-.94-.22a4.66,4.66,0,0,0-1.93-.1c-.5.13-.71.32-.72.73s.19.62.67.73c.68.15,1.38.24,2.06.38a3.38,3.38,0,0,1,1.23.45,1.88,1.88,0,0,1,.63,2.09A1.84,1.84,0,0,1,32.64,66,9,9,0,0,1,31,66.18Z"/><path class="cls-6" d="M55.92,66.09c.61-1.51,1.18-3,1.76-4.39.38-.94.77-1.88,1.13-2.82a.41.41,0,0,1,.45-.3,9.91,9.91,0,0,0,1.09,0c.24,0,.34.09.43.31.91,2.28,1.82,4.56,2.75,6.83.12.29.1.42-.24.37a.38.38,0,0,0-.15,0c-.82.14-1.43-.06-1.55-1,0-.17-.14-.21-.3-.21-1,0-1.94,0-2.9,0-.19,0-.29.07-.32.24a1.11,1.11,0,0,1-1.49,1A4.82,4.82,0,0,0,55.92,66.09Zm2.85-2.68h2c.15,0,.2,0,.13-.19l-1-2.64Z"/><path class="cls-6" d="M76.4,59.12,76,60c0,.08,0,.18-.15.19s-.13-.11-.16-.18a4.6,4.6,0,0,0-.45-.92c0,.3,0,.59,0,.88,0,.09,0,.21-.13.22S75,60.11,75,60V58.93c0-.11,0-.24.14-.25a.23.23,0,0,1,.28.17c.13.32.27.62.42,1a4.88,4.88,0,0,0,.39-.8c.08-.15.07-.4.35-.35s.13.28.14.43c0,.31,0,.63,0,.94,0,.09,0,.18-.13.18s-.14-.08-.14-.18v-.92Z"/><path class="cls-6" d="M73.9,59.51c0-.1,0-.2,0-.3s0-.4-.31-.35c-.07,0-.2,0-.19-.11s.12-.07.19-.07h.94c.07,0,.14,0,.14.09s-.08.1-.14.09c-.41-.08-.37.2-.36.45V60c0,.1,0,.24-.15.24s-.12-.14-.12-.23S73.9,59.68,73.9,59.51Z"/><path class="cls-3" d="M43.68,45.61H40.4c-.27,0-.34,0-.27-.33a3.72,3.72,0,0,1,4.12-2.66,3.34,3.34,0,0,1,3,2.68c.05.26,0,.31-.26.31Z"/><path class="cls-3" d="M57.17,45.61a3.8,3.8,0,0,1,5.09-2.79,3.17,3.17,0,0,1,2.16,2.5c0,.2,0,.29-.21.29Z"/><path class="cls-3" d="M42.51,62.48a3.24,3.24,0,0,1-.16,1.07,1.46,1.46,0,0,1-1,1,2.93,2.93,0,0,1-2.12-.09c-.69-.27-.84-.91-1-1.5a3.41,3.41,0,0,1,0-1.35,1.63,1.63,0,0,1,1.37-1.37,3.47,3.47,0,0,1,1.16-.06C42.05,60.36,42.51,61,42.51,62.48Z"/><path class="cls-3" d="M68.8,60.07a7.67,7.67,0,0,1,1.27.08,1.28,1.28,0,0,1,1.09,1.05,2.54,2.54,0,0,1,0,1.34,5.9,5.9,0,0,0-.15.73,1.26,1.26,0,0,1-1.18,1.2,13.6,13.6,0,0,1-1.91.06c-.15,0-.2-.06-.2-.2,0-1.35,0-2.71,0-4.06,0-.18.09-.21.24-.2Z"/><path class="cls-3" d="M58.77,63.41l1.11-2.83,1,2.64c.07.15,0,.19-.13.19Z"/></svg>