<svg xmlns="http://www.w3.org/2000/svg" viewBox="0 0 100 100"><defs><style>.cls-1{fill:#fff;}.cls-2{fill:#39363b;}.cls-3{fill:#302e36;}.cls-4{fill:#fcdc58;}.cls-5{fill:#d3d2d3;}.cls-6{fill:#d1d1d1;}</style></defs><g id="Layer_1" data-name="Layer 1"><rect class="cls-1" width="100" height="100"/></g><g id="Layer_2" data-name="Layer 2"><path class="cls-2" d="M51.23,25.82c7.85.52,15.4,4.88,19.48,14,4,8.88,2.24,17.18-3.93,24.6-1.23,1.48-3,2.52-3.81,4.34s-.63,2,1.21,2.11c.39,0,.78,0,1.17,0,.54,0,1.1.22,1.13.83,0,.76-.57.93-1.18,1a6.45,6.45,0,0,1-1.16,0c-1.57-.18-2.11.45-2.18,2.06A12.39,12.39,0,0,1,50.55,86.7c-7.3.38-12.83-3.81-13.79-10.76-.3-2.13-.85-3.21-3.15-2.84-.68.11-1.62,0-1.57-1s1-.81,1.68-.89,1.72.34,2.12-.49-.3-1.62-.8-2.26a21.25,21.25,0,0,0-2.24-2.41c-7.25-7-9.58-16.67-6.08-25.35C30.41,31.56,39.18,25.74,51.23,25.82ZM46.4,50.24h7c.57,0,1.24-.12,1.54.53s-.25,1.18-.7,1.64a67.4,67.4,0,0,1-5.52,5.44c-3,2.39-4.07,5.21-3.67,9.05.45,4.35.19,4.33,4.52,4.28,1.23,0,1.7-.32,1.64-1.63-.12-2.45-.1-4.92-.07-7.37,0-.82-.44-2.16.92-2.11s.94,1.34,1,2.2c.05,2.45.05,4.91.09,7.37,0,.44-.15.92.23,1.29s6.54.12,6.85-.27a2.89,2.89,0,0,0,.34-.89,11.59,11.59,0,0,1,3.24-5c6.14-5.85,8.45-13,6.25-21.18S62.17,30.28,53.87,28.3C39.9,25,26.41,36.11,27.16,50.37a20.31,20.31,0,0,0,6.49,13.89c1.63,1.57,3.49,3,4.08,5.31a1.94,1.94,0,0,0,2.48,1.66,10.48,10.48,0,0,1,1.94,0c1,.08,1.23-.34,1.2-1.25-.08-2.39,0-4.78-.17-7.17a3.77,3.77,0,0,1,1.28-3.26c2.45-2.24,4.83-4.56,7.23-6.86l-.36-.49H44.8c-.64,0-1.38.13-1.66-.65s.33-1.06.73-1.46c3-3,5.92-6,8.9-8.94.51-.5,1-1.45,1.91-.67s0,1.49-.58,2C51.66,45,49.19,47.44,46.4,50.24Zm2.84,25.91v-.28c3.1,0,6.2-.06,9.29,0,1.3,0,1.62-.42,1.63-1.65s-.48-1.48-1.6-1.46c-6.18.13-12.37.19-18.56.26-.89,0-1.68,0-1.57,1.28.1,1.13.16,1.94,1.72,1.87C43.18,76.06,46.21,76.15,49.24,76.15Zm.22,1.14v.16c-3,0-6.07,0-9.11,0-1.06,0-1.41.2-.89,1.31.66,1.39,1.4,2.22,3.18,2.14,4.58-.22,9.18-.28,13.76-.24a2.63,2.63,0,0,0,2.76-1.86c.47-1.07.5-1.59-1-1.54C55.28,77.36,52.37,77.29,49.46,77.29ZM42.4,82.15a10.05,10.05,0,0,0,13.9,0Z"/><path class="cls-3" d="M86.05,47.69c1,0,1.93,0,2.89,0a.74.74,0,0,1,.79.7c0,.49-.37.63-.77.69a35.43,35.43,0,0,1-6.75.23c-.45,0-1-.16-1-.74s.51-.67,1-.71c1.28-.12,2.56-.22,3.84-.32Z"/><path class="cls-3" d="M26.64,71.91c.05.69-4.89,5.78-5.59,5.77s-1-.37-.64-.84a37.3,37.3,0,0,1,5.29-5.37C26.12,71.11,26.55,71.37,26.64,71.91Z"/><path class="cls-3" d="M25.41,27.33a3.55,3.55,0,0,1-.74-.41c-1.6-1.49-3.2-3-4.78-4.5-.33-.31-.61-.74-.19-1.18s.84-.18,1.18.13c1.61,1.49,3.21,3,4.8,4.49.29.26.53.61.3,1A2.18,2.18,0,0,1,25.41,27.33Z"/><path class="cls-3" d="M12.41,50.23c-1,0-2.06,0-3.1,0-.46,0-1-.08-1-.65s.45-.75.9-.76c2.2,0,4.39-.05,6.59,0,.45,0,1,.13.94.74s-.56.66-1,.67c-1.09,0-2.19,0-3.29,0Z"/><path class="cls-3" d="M49.21,13.45c0,1,0,2.07,0,3.09,0,.47-.14.95-.74.93s-.67-.4-.68-.8c0-2.19,0-4.37,0-6.56,0-.4.17-.8.64-.83s.76.42.78.89c0,1.1,0,2.19,0,3.28Z"/><path class="cls-3" d="M72.19,70.44a7.57,7.57,0,0,1,1.1.68c1.52,1.47,3,2.95,4.53,4.44.32.31.67.72.25,1.16s-.84.09-1.17-.21q-2.33-2.15-4.62-4.34a1,1,0,0,1-.39-1A7.17,7.17,0,0,1,72.19,70.44Z"/><path class="cls-3" d="M76.84,20.21c.89.2.87.81.43,1.28-1.58,1.68-3.23,3.3-4.87,4.92a.7.7,0,0,1-1,.06.59.59,0,0,1,0-.86c1.63-1.73,3.28-3.44,4.93-5.14A1.83,1.83,0,0,1,76.84,20.21Z"/><path class="cls-4" d="M46.4,50.24c2.79-2.8,5.27-5.25,7.71-7.74.54-.55,1.56-1.14.57-2s-1.4.17-1.9.67c-3,3-5.94,5.95-8.9,8.94-.41.4-1,.8-.73,1.46s1,.65,1.65.65h6.53l.37.49c-2.41,2.3-4.78,4.62-7.23,6.86a3.75,3.75,0,0,0-1.28,3.26c.13,2.39.08,4.78.17,7.17,0,.91-.25,1.33-1.2,1.25a10.48,10.48,0,0,0-1.94,0,1.94,1.94,0,0,1-2.49-1.66c-.58-2.29-2.45-3.74-4.07-5.31a20.31,20.31,0,0,1-6.49-13.89C26.42,36.11,39.91,25,53.88,28.3c8.3,2,13.94,7.1,16.16,15.32S69.93,59,63.8,64.8a11.5,11.5,0,0,0-3.24,5,3.16,3.16,0,0,1-.34.89c-.31.39-6.49.61-6.85.27s-.23-.85-.24-1.29c0-2.46,0-4.92-.09-7.37,0-.86.27-2.16-.95-2.2-1.37,0-.92,1.29-.93,2.11,0,2.45,0,4.92.08,7.37.06,1.31-.42,1.61-1.65,1.63-4.33,0-4.06.07-4.51-4.28-.4-3.84.65-6.66,3.67-9.05a67.4,67.4,0,0,0,5.52-5.44c.45-.46,1-.89.7-1.64s-1-.53-1.55-.53Z"/><path class="cls-5" d="M49.24,76.15c-3,0-6.06-.09-9.09,0-1.56.07-1.62-.74-1.72-1.87-.11-1.32.68-1.27,1.57-1.28,6.19-.07,12.38-.13,18.56-.26,1.12,0,1.62.19,1.6,1.46s-.33,1.68-1.63,1.65"/><path class="cls-5" d="M49.46,77.29c2.91,0,5.82.07,8.72,0,1.48,0,1.45.47,1,1.54a2.63,2.63,0,0,1-2.76,1.86c-4.58,0-9.18,0-13.76.24-1.78.08-2.52-.75-3.18-2.14-.52-1.11-.17-1.33.89-1.31"/><path class="cls-6" d="M42.4,82.15H56.3A10.05,10.05,0,0,1,42.4,82.15Z"/></g></svg>