<svg id="Layer_1" data-name="Layer 1" xmlns="http://www.w3.org/2000/svg" viewBox="0 0 100 100"><defs><style>.cls-1{fill:#f6d164;}</style></defs><rect class="cls-1" width="100" height="100"/><path d="M9,19.22H15.3c0,4.13,0,8.13,0,12.14,0,1.4,0,2.81.1,4.21.31,4.09,2.21,6,5.88,6.06,3.9,0,6-1.81,6.22-6,.22-4.49.07-9,.1-13.5,0-.91.07-1.83.12-2.89h5.76c0,6.47.5,12.86-.15,19.12s-7,9.78-13.88,8.73c-6.51-1-9.89-4.29-10.33-11C8.75,30.57,9,25,9,19.22Z"/><path d="M65.24,23.56l-3.78,3.61c-2.6-2.6-5.77-3.79-9.19-2.85a10.82,10.82,0,0,0-5,3.28c-2.7,3.15-2.15,8.65.78,11.6,3.38,3.4,8.44,3.27,13.38-.52.64.54,1.3,1.15,2,1.68s1.4.94,2,1.34c-5,6.64-15.57,7.21-21.73,1.71a14.32,14.32,0,0,1-.5-20.6C49.23,16.91,59.94,17.18,65.24,23.56Z"/><path d="M76.89,46.53H70.64V19.22H91.07V24H77V31.4H89.38v5.09H76.89Z"/><path d="M52.84,63.69H43.9V58.8H68v4.94H59.3V86.48H52.84Z"/><path d="M33.15,58.67h6.12V86.5H33.15Z"/></svg>