<svg id="Layer_1" data-name="Layer 1" xmlns="http://www.w3.org/2000/svg" viewBox="0 0 93.43 93.42"><defs><style>.cls-1{fill:#fdfdfd;}.cls-2{fill:#05c98e;}</style></defs><path class="cls-1" d="M96.7,50.08c0,10.11,0,20.22,0,30.34A16.4,16.4,0,0,1,85.47,95.86a15.21,15.21,0,0,1-4.91.84c-20.37,0-40.74,0-61.11,0A16.29,16.29,0,0,1,3.33,80.56Q3.24,50,3.33,19.45A16.29,16.29,0,0,1,19.45,3.33q30.55-.08,61.11,0A16.31,16.31,0,0,1,96.68,19.45C96.74,29.66,96.7,39.87,96.7,50.08ZM42.87,21.81a7.71,7.71,0,0,0-8,7.62,7.63,7.63,0,0,0,7.5,7.75c4.7.11,8.23-3.09,8.32-7.53A7.62,7.62,0,0,0,42.87,21.81Zm10,7.73v6.87c0,.25-.09.54.36.52a59.55,59.55,0,0,0,7.07-.15,7.37,7.37,0,0,0-.46-14.64c-2.11-.2-4.24,0-6.36-.1-.51,0-.63.14-.62.64C52.93,25,52.91,27.25,52.91,29.54Zm-3.1,39.75a7.67,7.67,0,0,0-7.93-7.64,7.71,7.71,0,1,0,0,15.41A7.78,7.78,0,0,0,49.81,69.29Zm15.77,7.49c-1.16-1.69-2.21-3.25-3.28-4.79-.25-.35-.33-.52.16-.77a4.78,4.78,0,0,0,2.59-5.5A4.61,4.61,0,0,0,60.8,62c-2.55-.25-5.1,0-7.65-.12-.38,0-.42.18-.42.48,0,4.65,0,9.3,0,14,0,.4.14.48.49.47.79,0,1.58,0,2.36,0,.35,0,.46-.11.45-.44,0-.82,0-1.63,0-2.44,0-.61-.28-1.44.14-1.77s1.19-.07,1.8-.12a.94.94,0,0,1,1,.53c.83,1.28,1.69,2.54,2.54,3.8.14.21.24.45.58.44C63.18,76.76,64.3,76.78,65.58,76.78ZM78.17,68.3H75.88c-1,0-1,0-1,1,0,.59-.27,1.37.13,1.71s1.09.1,1.66.11c1.51,0,1.48,0,1.52,1.54a.92.92,0,0,1-.63,1,6,6,0,0,1-2.43.5c-2.77,0-4.7-2.13-4.53-5.08a4.43,4.43,0,0,1,5-4.28,5,5,0,0,1,2.66,1.11c.41.35.61.26.89-.11a17,17,0,0,1,1.32-1.6c.33-.34.24-.51-.09-.77a8,8,0,0,0-4-1.59c-3.18-.34-5.9.49-7.85,3.18a7.81,7.81,0,0,0,1.68,10.69c3.13,2.24,7.83,1.79,10.9-.73a.64.64,0,0,0,.22-.57c0-1.86,0-3.72,0-5.58,0-.38-.13-.49-.49-.48C80,68.31,79.07,68.3,78.17,68.3Zm-9.3-38.83c0,2.29,0,4.58,0,6.87,0,.37,0,.6.5.6,3.46,0,6.91,0,10.37,0,.4,0,.49-.12.47-.48a16.45,16.45,0,0,1,0-1.72c.05-.51-.08-.68-.64-.67-2.29,0-4.58,0-6.87,0-.5,0-.66-.14-.64-.64a20.42,20.42,0,0,0,0-2.07c0-.42.13-.52.53-.52,1.43,0,2.86,0,4.29,0,.71,0,1.7.25,2.07-.11s.08-1.44.15-2.19c0-.43-.09-.56-.54-.56-2,0-4,0-5.94,0-.44,0-.59-.13-.56-.56a14.42,14.42,0,0,0,0-1.86c0-.49.11-.65.62-.64,2.29,0,4.58,0,6.87,0,.37,0,.56-.05.53-.49,0-.64,0-1.29,0-1.93,0-.42-.12-.52-.52-.52-3.38,0-6.77,0-10.15,0-.46,0-.55.13-.55.57C68.88,24.89,68.87,27.18,68.87,29.47Zm-2.35,20.4c0,2.29,0,4.58,0,6.87,0,.51.15.65.64.62a18,18,0,0,1,2.08,0c.43,0,.56-.1.55-.55,0-1.65,0-3.29,0-4.94,0-.44.12-.56.56-.55,1.64,0,3.29,0,4.93,0,.52,0,.64.16.63.65,0,1.62,0,3.24,0,4.86,0,.39.07.55.5.53.74,0,1.48,0,2.22,0,.4,0,.52-.11.52-.52q0-6.93,0-13.87c0-.43-.15-.52-.53-.5a20.62,20.62,0,0,1-2.08,0c-.48,0-.64.09-.63.61,0,1.57,0,3.14,0,4.72,0,.46-.11.61-.6.61-1.64,0-3.29,0-4.93,0-.48,0-.6-.13-.59-.6,0-1.6,0-3.2,0-4.79,0-.45-.11-.58-.55-.55a18,18,0,0,1-2.08,0c-.48,0-.64.09-.64.61C66.54,45.34,66.52,47.61,66.52,49.87ZM50,57.53,49.78,57c-1.93-4.53-3.88-9-5.77-13.6-.29-.7-.64-1-1.4-.89a6.22,6.22,0,0,1-1.43,0,.71.71,0,0,0-.82.53c-2,4.68-4,9.34-6,14,0,.12-.21.27-.07.44.9,0,1.81,0,2.72,0a.59.59,0,0,0,.67-.46c.31-.81.67-1.61,1-2.43a.61.61,0,0,1,.69-.45c1.76,0,3.52,0,5.29,0a.68.68,0,0,1,.77.54c.29.8.64,1.59.95,2.39.11.27.23.42.56.41C47.93,57.52,48.91,57.53,50,57.53Zm-28.1-7.6c0,2.29,0,4.58,0,6.87,0,.42.09.59.54.56a19.28,19.28,0,0,1,2.15,0c.49,0,.58-.16.57-.6,0-1,0-2.1,0-3.15,0-.56.08-.78.71-.76a13.93,13.93,0,0,0,3.35-.12,5.14,5.14,0,0,0-.8-10.24c-1.95,0-3.91,0-5.86,0-.57,0-.65.18-.65.68C21.88,45.41,21.87,47.67,21.87,49.93Zm6.31-12.7a7.43,7.43,0,0,0,5.19-1.83c.86-.77.86-.77.05-1.62a8.83,8.83,0,0,1-.8-.82c-.34-.46-.62-.38-1,0a4.73,4.73,0,0,1-4.14,1.26A4.41,4.41,0,0,1,23.89,30a4.6,4.6,0,0,1,3.55-5.1,5,5,0,0,1,4.2,1.29c.37.31.51.22.75-.09a15.85,15.85,0,0,1,1.32-1.51c.42-.4.29-.63-.09-.94a7.77,7.77,0,0,0-4.14-1.76c-5.54-.65-9,3.31-9,7.74A7.49,7.49,0,0,0,28.18,37.23Zm-4.72,32c-.2.13-.3.2-.4.25-.89.45-1.78.9-2.69,1.33-.45.21-.54.47-.29.9s.47.88.68,1.33.38.51.77.29,1-.54,1.52-.77,1.19-.88,1.56-.66.09,1.1.15,1.68a.66.66,0,0,1,0,.14c0,1.71,0,1.7,1.75,1.69.49,0,.68-.13.66-.64,0-.83,0-1.67,0-2.5,0-.48.14-.53.53-.31s1.06.53,1.59.8c1.62.82,1.62.82,2.45-.82.41-.83.42-.83-.45-1.27l-2.86-1.41c1.14-.57,2.13-1.08,3.13-1.55.46-.22.55-.47.3-.89s-.47-.88-.67-1.34-.45-.46-.84-.25c-.86.45-1.75.86-2.62,1.31-.4.22-.59.22-.56-.32s0-1,0-1.5c0-1.65,0-1.63-1.68-1.64-.56,0-.75.17-.73.73,0,1,0,1.93,0,3l-2-1c-1.78-.88-1.76-.87-2.66.87-.29.58-.15.83.4,1.08C21.49,68.2,22.43,68.7,23.46,69.21ZM56.4,42.66c-1.88,0-3.76,0-5.64,0-.4,0-.54.1-.52.51a16.67,16.67,0,0,1,0,2c0,.48.18.54.58.53,1.1,0,2.2,0,3.29,0,.59,0,.7.18.69.72,0,3.46,0,6.91,0,10.37,0,.59.08.87.76.79a8.15,8.15,0,0,1,1.78,0c.59.05.75-.14.75-.74,0-3.5,0-7,0-10.5,0-.5.13-.65.63-.64,1.1,0,2.2,0,3.29,0,.48,0,.69-.09.65-.62a11.75,11.75,0,0,1,0-1.78c0-.5-.11-.65-.62-.64C60.12,42.68,58.26,42.66,56.4,42.66Z" transform="translate(-3.29 -3.29)"/><path d="M42.87,21.81a7.62,7.62,0,0,1,7.78,7.84c-.09,4.44-3.62,7.64-8.32,7.53a7.63,7.63,0,0,1-7.5-7.75A7.71,7.71,0,0,1,42.87,21.81Zm-4.62,7.68a4.5,4.5,0,1,0,4.35-4.68A4.51,4.51,0,0,0,38.25,29.49Z" transform="translate(-3.29 -3.29)"/><path d="M52.91,29.54c0-2.29,0-4.57,0-6.86,0-.5.11-.65.62-.64,2.12.07,4.25-.1,6.36.1a7.37,7.37,0,0,1,.46,14.64,59.55,59.55,0,0,1-7.07.15c-.45,0-.36-.27-.36-.52Zm3.25-.07c0,1.34,0,2.67,0,4,0,.41.1.54.52.52.78,0,1.57,0,2.35,0a4.14,4.14,0,0,0,4.15-3.74,4.39,4.39,0,0,0-2.89-5A12.34,12.34,0,0,0,56.75,25c-.45,0-.61.09-.6.57C56.19,26.85,56.16,28.16,56.16,29.47Z" transform="translate(-3.29 -3.29)"/><path class="cls-2" d="M49.81,69.29a7.78,7.78,0,0,1-7.93,7.77,7.71,7.71,0,1,1,0-15.41A7.67,7.67,0,0,1,49.81,69.29Zm-12.44,0A4.54,4.54,0,0,0,41.91,74a4.47,4.47,0,0,0,4.47-4.68,4.51,4.51,0,1,0-9,0Z" transform="translate(-3.29 -3.29)"/><path class="cls-2" d="M65.58,76.78c-1.28,0-2.4,0-3.52,0-.34,0-.44-.23-.58-.44-.85-1.26-1.71-2.52-2.54-3.8A.94.94,0,0,0,58,72c-.61,0-1.41-.19-1.8.12S56,73.29,56,73.9c0,.81,0,1.62,0,2.44,0,.33-.1.45-.45.44-.78,0-1.57,0-2.36,0-.35,0-.49-.07-.49-.47,0-4.65,0-9.3,0-14,0-.3,0-.49.42-.48,2.55.07,5.1-.13,7.65.12a4.61,4.61,0,0,1,4.25,3.72,4.78,4.78,0,0,1-2.59,5.5c-.49.25-.41.42-.16.77C63.37,73.53,64.42,75.09,65.58,76.78ZM56,66.92c0,.6,0,1.19,0,1.79,0,.28.05.45.39.44,1.12,0,2.24,0,3.36,0A2.12,2.12,0,0,0,61.86,67a2.08,2.08,0,0,0-2.06-2.13c-1-.14-2,0-3-.08-.59,0-.89.09-.79.76A10.29,10.29,0,0,1,56,66.92Z" transform="translate(-3.29 -3.29)"/><path class="cls-2" d="M78.17,68.3c.9,0,1.81,0,2.72,0,.36,0,.49.1.49.48,0,1.86,0,3.72,0,5.58a.64.64,0,0,1-.22.57c-3.07,2.52-7.77,3-10.9.73A7.81,7.81,0,0,1,68.57,65c2-2.69,4.67-3.52,7.85-3.18a8,8,0,0,1,4,1.59c.33.26.42.43.09.77a17,17,0,0,0-1.32,1.6c-.28.37-.48.46-.89.11a5,5,0,0,0-2.66-1.11,4.43,4.43,0,0,0-5,4.28c-.17,3,1.76,5.12,4.53,5.08a6,6,0,0,0,2.43-.5.92.92,0,0,0,.63-1c0-1.54,0-1.54-1.52-1.54-.57,0-1.32.18-1.66-.11s-.11-1.12-.13-1.71c0-1,0-1,1-1Z" transform="translate(-3.29 -3.29)"/><path d="M68.87,29.47c0-2.29,0-4.58,0-6.86,0-.44.09-.57.55-.57,3.38,0,6.77,0,10.15,0,.4,0,.55.1.52.52,0,.64,0,1.29,0,1.93,0,.44-.16.49-.53.49-2.29,0-4.58,0-6.87,0-.51,0-.65.15-.62.64a14.42,14.42,0,0,1,0,1.86c0,.43.12.57.56.56,2,0,4,0,5.94,0,.45,0,.58.13.54.56-.07.75.3,1.73-.15,2.19s-1.36.11-2.07.11c-1.43,0-2.86,0-4.29,0-.4,0-.55.1-.53.52a20.42,20.42,0,0,1,0,2.07c0,.5.14.65.64.64,2.29,0,4.58,0,6.87,0,.56,0,.69.16.64.67a16.45,16.45,0,0,0,0,1.72c0,.36-.07.49-.47.48-3.46,0-6.91,0-10.37,0-.51,0-.5-.23-.5-.6C68.88,34.05,68.87,31.76,68.87,29.47Z" transform="translate(-3.29 -3.29)"/><path d="M66.52,49.87c0-2.26,0-4.53,0-6.79,0-.52.16-.64.64-.61a18,18,0,0,0,2.08,0c.44,0,.56.1.55.55,0,1.59,0,3.19,0,4.79,0,.47.11.6.59.6,1.64,0,3.29,0,4.93,0,.49,0,.61-.15.6-.61,0-1.58,0-3.15,0-4.72,0-.52.15-.64.63-.61a20.62,20.62,0,0,0,2.08,0c.38,0,.53.07.53.5q0,6.93,0,13.87c0,.41-.12.53-.52.52-.74,0-1.48,0-2.22,0-.43,0-.5-.14-.5-.53,0-1.62,0-3.24,0-4.86,0-.49-.11-.66-.63-.65-1.64,0-3.29,0-4.93,0-.44,0-.57.11-.56.55,0,1.65,0,3.29,0,4.94,0,.45-.12.57-.55.55a18,18,0,0,0-2.08,0c-.49,0-.64-.11-.64-.62C66.53,54.45,66.52,52.16,66.52,49.87Z" transform="translate(-3.29 -3.29)"/><path d="M50,57.53c-1.06,0-2,0-3,0-.33,0-.45-.14-.56-.41-.31-.8-.66-1.59-.95-2.39a.68.68,0,0,0-.77-.54c-1.77,0-3.53,0-5.29,0a.61.61,0,0,0-.69.45c-.3.82-.66,1.62-1,2.43a.59.59,0,0,1-.67.46c-.91,0-1.82,0-2.72,0-.14-.17,0-.32.07-.44,2-4.67,4-9.33,6-14a.71.71,0,0,1,.82-.53,6.22,6.22,0,0,0,1.43,0c.76-.11,1.11.19,1.4.89C45.9,48,47.85,52.51,49.78,57ZM42.06,46.45c-.67,1.63-1.25,3.08-1.85,4.52-.13.32,0,.36.28.35h3.14c.25,0,.42,0,.28-.36C43.3,49.53,42.72,48.08,42.06,46.45Z" transform="translate(-3.29 -3.29)"/><path d="M21.87,49.93c0-2.26,0-4.52,0-6.79,0-.5.08-.69.65-.68,1.95,0,3.91,0,5.86,0a5.14,5.14,0,0,1,.8,10.24,13.93,13.93,0,0,1-3.35.12c-.63,0-.74.2-.71.76,0,1,0,2.1,0,3.15,0,.44-.08.63-.57.6a19.28,19.28,0,0,0-2.15,0c-.45,0-.55-.14-.54-.56C21.88,54.51,21.87,52.22,21.87,49.93Zm3.24-2.23v1.85c0,.22,0,.44.31.43a19.53,19.53,0,0,0,3.06-.1,2.19,2.19,0,0,0,1.85-2.14,2.05,2.05,0,0,0-1.65-2.18,14.94,14.94,0,0,0-3.34-.14c-.3,0-.23.25-.23.42C25.1,46.46,25.11,47.08,25.11,47.7Z" transform="translate(-3.29 -3.29)"/><path d="M28.18,37.23a7.49,7.49,0,0,1-7.69-7.57c-.06-4.43,3.45-8.39,9-7.74a7.77,7.77,0,0,1,4.14,1.76c.38.31.51.54.09.94a15.85,15.85,0,0,0-1.32,1.51c-.24.31-.38.4-.75.09a5,5,0,0,0-4.2-1.29A4.6,4.6,0,0,0,23.89,30a4.41,4.41,0,0,0,3.59,4.15,4.73,4.73,0,0,0,4.14-1.26c.38-.34.66-.42,1,0a8.83,8.83,0,0,0,.8.82c.81.85.81.85-.05,1.62A7.43,7.43,0,0,1,28.18,37.23Z" transform="translate(-3.29 -3.29)"/><path class="cls-2" d="M23.46,69.21c-1-.51-2-1-2.94-1.45-.55-.25-.69-.5-.4-1.08.9-1.74.88-1.75,2.66-.87l2,1c0-1.06,0-2,0-3,0-.56.17-.73.73-.73,1.68,0,1.68,0,1.68,1.64,0,.5,0,1,0,1.5s.16.54.56.32c.87-.45,1.76-.86,2.62-1.31.39-.21.65-.2.84.25s.43.9.67,1.34.16.67-.3.89c-1,.47-2,1-3.13,1.55l2.86,1.41c.87.44.86.44.45,1.27-.83,1.64-.83,1.64-2.45.82-.53-.27-1.07-.52-1.59-.8s-.54-.17-.53.31c0,.83,0,1.67,0,2.5,0,.51-.17.64-.66.64-1.75,0-1.75,0-1.75-1.69a.66.66,0,0,0,0-.14c-.06-.58.28-1.43-.15-1.68s-1,.42-1.56.66-1,.49-1.52.77-.6.09-.77-.29-.44-.9-.68-1.33-.16-.69.29-.9c.91-.43,1.8-.88,2.69-1.33C23.16,69.41,23.26,69.34,23.46,69.21Z" transform="translate(-3.29 -3.29)"/><path d="M56.4,42.66c1.86,0,3.72,0,5.58,0,.51,0,.65.14.62.64a11.75,11.75,0,0,0,0,1.78c0,.53-.17.64-.65.62-1.09,0-2.19,0-3.29,0-.5,0-.63.14-.63.64,0,3.5,0,7,0,10.5,0,.6-.16.79-.75.74a8.15,8.15,0,0,0-1.78,0c-.68.08-.77-.2-.76-.79,0-3.46,0-6.91,0-10.37,0-.54-.1-.75-.69-.72-1.09,0-2.19,0-3.29,0-.4,0-.61,0-.58-.53a16.67,16.67,0,0,0,0-2c0-.41.12-.51.52-.51C52.64,42.67,54.52,42.66,56.4,42.66Z" transform="translate(-3.29 -3.29)"/><path class="cls-1" d="M38.25,29.49a4.5,4.5,0,1,1,9,0,4.51,4.51,0,1,1-9,0Z" transform="translate(-3.29 -3.29)"/><path class="cls-1" d="M56.16,29.47c0-1.31,0-2.62,0-3.93,0-.48.15-.6.6-.57a12.34,12.34,0,0,1,3.53.28,4.39,4.39,0,0,1,2.89,5A4.14,4.14,0,0,1,59,34c-.78,0-1.57,0-2.35,0-.42,0-.52-.11-.52-.52C56.18,32.14,56.16,30.81,56.16,29.47Z" transform="translate(-3.29 -3.29)"/><path class="cls-1" d="M37.37,69.33A4.51,4.51,0,1,1,41.91,74,4.54,4.54,0,0,1,37.37,69.33Z" transform="translate(-3.29 -3.29)"/><path class="cls-1" d="M56,66.92a10.29,10.29,0,0,0,0-1.36c-.1-.67.2-.8.79-.76,1,.06,2-.06,3,.08A2.08,2.08,0,0,1,61.86,67a2.12,2.12,0,0,1-2.1,2.11c-1.12.08-2.24,0-3.36,0-.34,0-.39-.16-.39-.44C56,68.11,56,67.52,56,66.92Z" transform="translate(-3.29 -3.29)"/><path class="cls-1" d="M42.06,46.45c.66,1.63,1.24,3.08,1.85,4.51.14.34,0,.36-.28.36H40.49c-.27,0-.41,0-.28-.35C40.81,49.53,41.39,48.08,42.06,46.45Z" transform="translate(-3.29 -3.29)"/><path class="cls-1" d="M25.11,47.7c0-.62,0-1.24,0-1.86,0-.17-.07-.43.23-.42a14.94,14.94,0,0,1,3.34.14,2.05,2.05,0,0,1,1.65,2.18,2.19,2.19,0,0,1-1.85,2.14,19.53,19.53,0,0,1-3.06.1c-.33,0-.31-.21-.31-.43Z" transform="translate(-3.29 -3.29)"/></svg>