<svg id="Layer_1" data-name="Layer 1" xmlns="http://www.w3.org/2000/svg" viewBox="0 0 81 81"><defs><style>.cls-1{fill:#fcfcfc;}</style></defs><rect class="cls-1" width="81" height="81" rx="6.17"/><path d="M24.58,50V65.8c0,.49,0,.49-.49.49s-1.16,0-1.73,0c-.36,0-.43-.12-.43-.45q0-10,0-20c0-3.93,0-7.85,0-11.78,0-.37.1-.48.46-.46.63,0,1.25,0,1.87,0,.3,0,.35.11.33.36s0,.62,0,.93Z" transform="translate(-9.5 -9.5)"/><path d="M27.2,40.58V34.13c0-.54,0-.54.52-.54h3c2.08,0,4.15,0,6.23,0,.34,0,.47.09.45.45a14.42,14.42,0,0,0,0,1.47c0,.38-.14.46-.49.46-2.18,0-4.36,0-6.55,0-.49,0-.49,0-.49.5,0,.81,0,1.63,0,2.45,0,.29.07.39.38.39,1.35,0,2.71,0,4.07,0,.56,0,.56,0,.56.56s0,.88,0,1.33-.11.42-.41.42c-1.4,0-2.81,0-4.21,0-.3,0-.4.07-.4.37,0,1,0,2,0,3,0,.29.09.36.37.36h6.52a1.61,1.61,0,0,1,.54,0c.13,0,.32.21.32.33,0,.55,0,1.1,0,1.66,0,.23-.14.31-.35.31-.42,0-.84,0-1.26,0-2.64,0-5.28,0-7.92,0-1,0-.88,0-.89-.87V40.58Z" transform="translate(-9.5 -9.5)"/><path d="M16.84,50q0-7.77,0-15.55c0-1-.07-.84.85-.85H19c.27,0,.36.11.36.37,0,1.12,0,2.23,0,3.35V65.94c0,.24-.08.35-.34.35-.61,0-1.22,0-1.83,0-.27,0-.36-.09-.36-.35,0-.85,0-1.7,0-2.55V50Z" transform="translate(-9.5 -9.5)"/><path d="M50.91,57.34a12.36,12.36,0,0,1,1.69-1,4.13,4.13,0,0,1,5.14,2.08,6.48,6.48,0,0,1-.12,5.95,4.09,4.09,0,0,1-6.46,1,1.68,1.68,0,0,0-.27-.21c0,.32,0,.55,0,.79s-.08.34-.34.34c-.63,0-1.27,0-1.9,0-.24,0-.33-.08-.33-.31s0-.57,0-.86q0-6.26,0-12.49c0-.6,0-.61.59-.61h1.55c.33,0,.46.13.45.45,0,1.5,0,3,0,4.5ZM55.63,61a7.53,7.53,0,0,0-.13-1,2.11,2.11,0,0,0-1.74-1.7,2.19,2.19,0,0,0-2.44,1,4,4,0,0,0-.2,3.8,2.3,2.3,0,0,0,4,.28A4.15,4.15,0,0,0,55.63,61Z" transform="translate(-9.5 -9.5)"/><path d="M44,65.12a7.92,7.92,0,0,1-.95.8,4.33,4.33,0,0,1-4.46.12,2.59,2.59,0,0,1-1.34-2.46,2.48,2.48,0,0,1,1.71-2.5c1-.36,2.1-.57,3.15-.83.44-.11.9-.18,1.33-.31a.72.72,0,0,0,.25-1.31,2.1,2.1,0,0,0-.77-.36,3,3,0,0,0-1.8.08,1.49,1.49,0,0,0-1,1.22c0,.23-.13.31-.35.31l-2,0c-.31,0-.32-.18-.29-.41a3.37,3.37,0,0,1,1.75-2.66,6,6,0,0,1,5.46-.18,2.78,2.78,0,0,1,1.71,2.57c.09,2.25.07,4.51.1,6.76,0,.21-.08.3-.3.3H44.27c-.22,0-.3-.08-.3-.29S44,65.45,44,65.12Zm0-3.69-.25,0c-.6.17-1.2.32-1.79.52a9.49,9.49,0,0,0-1.56.6,1.07,1.07,0,0,0-.44,1.26,1.19,1.19,0,0,0,1,.78,5.76,5.76,0,0,0,.93,0,2.28,2.28,0,0,0,1.79-1.18A3.88,3.88,0,0,0,44,61.43Z" transform="translate(-9.5 -9.5)"/><path d="M45.89,43.56a2.15,2.15,0,0,0,1.2,1.92,3.33,3.33,0,0,0,2.22.15,1.9,1.9,0,0,0,1.32-1.08c.12-.27.26-.32.52-.21.45.18.91.32,1.35.49s.54.28.28.76a4,4,0,0,1-2.09,1.79,6,6,0,0,1-4.59,0,4.51,4.51,0,0,1-2.83-4.1A5.46,5.46,0,0,1,44.6,39a4.59,4.59,0,0,1,3.09-1.52,5.13,5.13,0,0,1,3.16.63,4.23,4.23,0,0,1,2,2.93,17.69,17.69,0,0,1,.2,2.07c0,.34-.11.44-.43.44-1.68,0-3.36,0-5,0Zm4.48-1.87A2,2,0,0,0,48,39.51a2.19,2.19,0,0,0-2.12,2.18Z" transform="translate(-9.5 -9.5)"/><path d="M65.54,43.56a2.18,2.18,0,0,0,1.8,2.11A2.58,2.58,0,0,0,70,45a1.94,1.94,0,0,0,.21-.29c.25-.45.25-.45.76-.26s.89.33,1.35.48c.3.11.35.27.21.55a3.91,3.91,0,0,1-2.16,1.92,5.94,5.94,0,0,1-5.29-.29,4.09,4.09,0,0,1-1.82-2.25,5.92,5.92,0,0,1,.25-4.72,4.88,4.88,0,0,1,5.55-2.52,4.49,4.49,0,0,1,3.62,4.24c0,.44,0,.89,0,1.33s-.11.4-.4.4c-1.66,0-3.33,0-5,0ZM70,41.69a2,2,0,0,0-2.17-2.18,2.23,2.23,0,0,0-2.33,2.18Z" transform="translate(-9.5 -9.5)"/><path d="M76.87,39A3.08,3.08,0,0,1,79,37.51a3.26,3.26,0,0,1,4,2.68,8.83,8.83,0,0,1,.15,1.54c0,1.83,0,3.67,0,5.5,0,.33-.08.46-.43.44-.54,0-1.08,0-1.62,0s-.56,0-.56-.56l0-5.66a1.59,1.59,0,0,0-1.19-1.71A1.9,1.9,0,0,0,77,41.13a3.7,3.7,0,0,0-.14,1c0,1.67,0,3.34,0,5,0,.51,0,.53-.53.54s-1.16,0-1.73,0c-.27,0-.39-.12-.39-.39,0-3.1,0-6.2,0-9.29,0-.23.06-.33.3-.33h2c.25,0,.33.1.32.32v1Z" transform="translate(-9.5 -9.5)"/><path d="M67.7,58.29c-.49.27-1,.51-1.45.8a.65.65,0,0,1-1-.13,2.77,2.77,0,0,0-2.61-.77,1.06,1.06,0,0,0-.3.1.84.84,0,0,0,.13,1.65c.74.17,1.5.29,2.24.49a7.71,7.71,0,0,1,1.65.59,2.75,2.75,0,0,1,.21,4.68,5.21,5.21,0,0,1-4.56.69,5,5,0,0,1-2.62-1.63c-.19-.22-.15-.32.09-.45.48-.26.95-.53,1.4-.81a.4.4,0,0,1,.59.08,3,3,0,0,0,3,.89,1.18,1.18,0,0,0,.5-.25.73.73,0,0,0-.11-1.29,15.76,15.76,0,0,0-1.78-.52,13.85,13.85,0,0,1-2.16-.65A2.73,2.73,0,0,1,60.45,57a5.35,5.35,0,0,1,7.1,1A2.32,2.32,0,0,1,67.7,58.29Z" transform="translate(-9.5 -9.5)"/><path d="M27.21,59.3V52.75c0-.46,0-.5.49-.5h1.76c.33,0,.44.11.44.44,0,3,0,5.9,0,8.85,0,.69,0,1.37,0,2.05,0,.3.07.39.38.39h5.29c.76,0,.67,0,.67.65,0,.41,0,.82,0,1.23s-.13.43-.46.43H30.6c-1,0-2,0-3,0-.32,0-.41-.1-.41-.41,0-2.2,0-4.39,0-6.59Z" transform="translate(-9.5 -9.5)"/><path d="M58.25,44.46c.21-.7.43-1.4.65-2.09l1.38-4.31a.49.49,0,0,1,.55-.4c.59,0,1.17,0,1.76,0,.31,0,.38.13.28.41q-1.65,4.53-3.29,9c-.21.56-.23.55-.81.55s-.86,0-1.29,0a.61.61,0,0,1-.7-.46c-.82-2.17-1.66-4.34-2.49-6.51-.33-.85-.67-1.69-1-2.55-.18-.48-.15-.51.35-.51h1.7a.53.53,0,0,1,.58.42q1,3,2.06,6c0,.13.09.26.14.39Z" transform="translate(-9.5 -9.5)"/><path d="M41.76,40.56c0,2.22,0,4.43,0,6.65,0,.37-.13.48-.48.47-.56,0-1.13,0-1.69,0-.34,0-.47-.14-.47-.48,0-1.52,0-3,0-4.57,0-2.93,0-5.85,0-8.78,0-.34.11-.48.46-.46.59,0,1.18,0,1.76,0,.35,0,.48.12.48.48,0,2.23,0,4.47,0,6.7Z" transform="translate(-9.5 -9.5)"/></svg>