<svg id="Layer_1" data-name="Layer 1" xmlns="http://www.w3.org/2000/svg" viewBox="0 0 96 96"><defs><style>.cls-1{fill:#fff;}.cls-2{fill:#0ae448;}</style></defs><rect class="cls-1" width="96" height="96" rx="31.5"/><path class="cls-2" d="M32.13,49h0L31,53.87a.66.66,0,0,1-.66.48H29a.24.24,0,0,0-.22.16c-1.26,4.26-3,7.19-5.2,9a11.42,11.42,0,0,1-7.41,2.2A7.83,7.83,0,0,1,9.81,63C7.67,60.58,6.79,56.7,7.32,52c1-8.78,5.52-17.65,14.29-17.65a7.8,7.8,0,0,1,6.22,2.45c1.54,1.73,2.33,4.35,2.33,7.78a.57.57,0,0,1-.57.56H23.16a.45.45,0,0,1-.43-.43c-.05-2.37-.75-3.52-2.15-3.52-2.46,0-3.92,3.34-4.69,5.2a19.56,19.56,0,0,0-1.51,8.2c0,1.3.26,3.14,1.49,3.9A3.41,3.41,0,0,0,19.49,58a6.48,6.48,0,0,0,2-3.22c0-.16.05-.29,0-.34s-.16-.07-.26-.07H19.61a.58.58,0,0,1-.46-.22.43.43,0,0,1-.09-.38l1.13-4.9a.62.62,0,0,1,.56-.47H31.66a.57.57,0,0,1,.47.59Z" transform="translate(-2 -2)"/><path class="cls-2" d="M50.78,43.34a.58.58,0,0,1-.58.56H44.28a.72.72,0,0,1-.71-.7c0-1.73-.6-2.57-1.82-2.57a1.91,1.91,0,0,0-2,2.07c0,1.46.8,2.79,3.15,5.07,3.1,2.91,4.35,5.49,4.29,8.89-.1,5.51-3.84,9.07-9.54,9.07-2.91,0-5.13-.78-6.61-2.32s-2.19-3.84-2.05-6.8a.57.57,0,0,1,.58-.55h6.12a.54.54,0,0,1,.44.22.49.49,0,0,1,.12.4,3.06,3.06,0,0,0,.53,2.3,1.45,1.45,0,0,0,1.11.43c1.13,0,1.8-.8,1.82-2.19,0-1.2-.36-2.26-2.43-4.39-2.68-2.62-5.08-5.32-5-9.58A8.85,8.85,0,0,1,35,36.9a10.35,10.35,0,0,1,7.26-2.63c2.91,0,5.12.86,6.57,2.48s2,3.75,2,6.59Z" transform="translate(-2 -2)"/><path class="cls-2" d="M69.13,64.69l0-29.28a.55.55,0,0,0-.54-.56H59.45c-.31,0-.44.26-.53.44L45.65,64.51h0a.55.55,0,0,0,.52.75h6.4a.71.71,0,0,0,.69-.32l1.27-3.06c.16-.41.19-.45.63-.45h6.12c.43,0,.44,0,.43.43l-.14,2.84a.56.56,0,0,0,.55.56H68.6a.57.57,0,0,0,.42-.19A.5.5,0,0,0,69.13,64.69ZM57.79,54.91h-.14a.16.16,0,0,1-.14-.17v0s0-.1.06-.18l4.59-11.35c0-.11.09-.22.14-.33s.17-.16.19,0S62,54.47,62,54.47c0,.43-.07.45-.49.49l-3.68,0h0Z" transform="translate(-2 -2)"/><path class="cls-2" d="M82.18,34.85H77.32a.6.6,0,0,0-.62.44L69.94,64.68a.44.44,0,0,0,.09.38.61.61,0,0,0,.46.21h6.07a.57.57,0,0,0,.62-.44l.73-3.33a.47.47,0,0,0-.27-.58l-.32-.17-1.06-.55-1.05-.55-.4-.21a.19.19,0,0,1-.11-.18.21.21,0,0,1,.21-.2h3.33a15.53,15.53,0,0,0,3-.24c6.9-1.27,11.49-6.8,11.62-14.32.11-6.42-3.47-9.67-10.64-9.67ZM80.52,52.33h-.13c-.29,0-.34,0-.35,0L82,43.82c.05-.25.05-.39-.1-.47l-3-1.59a.19.19,0,0,1-.11-.18.2.2,0,0,1,.21-.2H83.4c1.39,0,2.16,1.28,2.12,3.39-.06,3.66-1.8,7.44-5,7.57Z" transform="translate(-2 -2)"/></svg>