<svg id="Layer_1" data-name="Layer 1" xmlns="http://www.w3.org/2000/svg" viewBox="0 0 97.99 97.99"><defs><style>.cls-1{fill:#fefefe;}.cls-2{fill:#df2927;}.cls-3{fill:#6d767f;}</style></defs><path class="cls-1" d="M50,99H25.12A24.1,24.1,0,0,1,1,74.89Q1,50,1,25.11A24.1,24.1,0,0,1,25.11,1H74.89A24.1,24.1,0,0,1,99,25.11Q99,50,99,74.89A24.1,24.1,0,0,1,74.88,99ZM81.8,58.5c1.48,0,3,0,4.45,0,.38,0,.47-.11.47-.47,0-5.4,0-10.8,0-16.2,0-.12,0-.24,0-.37-.16-2.24-2.07-3.4-4.69-2.52l-1.42-.63a31.29,31.29,0,0,0-2.54-5.08,29,29,0,0,0-7-8.12,32.54,32.54,0,0,0-23.44-7.21,31.23,31.23,0,0,0-8.79,2A32.33,32.33,0,0,0,22.64,33.38a27.84,27.84,0,0,0-2.56,5.23c-1.94,0-3.89,0-5.83,0a.47.47,0,0,0-.48.47c0,5.46,0,10.93,0,16.4a3,3,0,0,0,3,3l2.21,0a32.17,32.17,0,0,0,9.18,15.43c.22.21.35.19.56,0,.82-.78,1.71-1.47,2.59-2.18a.54.54,0,0,1,.84,0,19.83,19.83,0,0,0,2.54,1.94c7.87,5.14,16.53,6.17,25.93,3a24.66,24.66,0,0,0,8.1-5,.45.45,0,0,1,.69,0A31.64,31.64,0,0,1,72,73.86c.25.24.4.25.61.09a22.84,22.84,0,0,0,5-5.87A32.5,32.5,0,0,0,81.8,58.5Z" transform="translate(-1 -1.01)"/><path class="cls-2" d="M80.71,38.62h3a2.86,2.86,0,0,1,3,2.82c0,.13,0,.25,0,.37,0,5.4,0,10.8,0,16.2,0,.36-.09.47-.47.47-1.48,0-3,0-4.45,0H80.69c-1.1,0-2.2,0-3.31,0H25l-.45,0H19l-2.21,0a2.85,2.85,0,0,1-3-3c0-5.47,0-10.94,0-16.4,0-.38.1-.48.48-.47,1.94,0,3.89,0,5.83,0a5.72,5.72,0,0,0,1.17,0h53l.65,0a6.87,6.87,0,0,0,1.2,0h3.44A6.31,6.31,0,0,0,80.71,38.62ZM48.92,48.47c0,1.44,0,2.88,0,4.33,0,.24,0,.34.31.32a8,8,0,0,1,1,0c.28,0,.37-.06.37-.35,0-1,0-2,0-3,0-.33.07-.44.42-.44,1.05,0,2.1,0,3.14,0,.35,0,.82.12,1-.06s0-.69.09-1-.12-.39-.41-.39H50.94c-.27,0-.39,0-.38-.35,0-.6,0-1.2,0-1.8,0-.28.07-.37.36-.36h3.75c.37,0,.84.15,1.06-.07s0-.7.08-1.06-.09-.38-.39-.37q-3.06,0-6.12,0c-.34,0-.4.12-.39.42C48.93,45.67,48.92,47.07,48.92,48.47Zm-5.62.76c0,.88,0,1.76,0,2.65,0,.39-.14.91.06,1.14s.76,0,1.16.1S45,53,45,52.7c0-2.23,0-4.46,0-6.69,0-.7-.09-.61.6-.62h1.22c.35,0,.81.12,1-.06s.05-.69.09-1-.07-.44-.41-.44c-2,0-3.95,0-5.92,0-.39,0-.92-.18-1.13.08s0,.76-.07,1.15.08.3.3.3c.77,0,1.53,0,2.29,0,.29,0,.36.09.36.37C43.3,46.91,43.3,48.07,43.3,49.23Zm15.64-2.58c0,.29,0,.58,0,.86s-.1.39-.39.37-.71,0-1.06,0c-1.14,0-1.13,0-1.11,1.16,0,.26.09.32.33.31.64,0,1.28,0,1.91,0,.26,0,.34.08.32.33s0,.7,0,1.06-.17.89.08,1.09.73,0,1.11.06.34-.05.33-.31c0-.61,0-1.23,0-1.84,0-.29.06-.42.38-.39s.71,0,1.06,0c1.14,0,1.13,0,1.11-1.16,0-.26-.08-.32-.33-.32-.64,0-1.28,0-1.92,0-.23,0-.3-.07-.29-.3s0-.71,0-1.06.17-.87-.08-1.09-.73,0-1.1-.07-.35.06-.34.31S58.94,46.33,58.94,46.65ZM39.38,48.46c0-1.41,0-2.83,0-4.24,0-.29-.08-.39-.36-.36a6.76,6.76,0,0,1-.9,0c-.33,0-.4.09-.4.4q0,3.8,0,7.58c0,.41-.14.95.06,1.19s.8,0,1.21.09.39-.08.38-.38C39.38,51.31,39.39,49.89,39.38,48.46Z" transform="translate(-1 -1.01)"/><path class="cls-3" d="M76.26,58.49h1.12a23.76,23.76,0,0,1-1.51,3.91,28.29,28.29,0,0,1-5.75,8c-.2.2-.23.3,0,.49.66.51,1.31,1,1.94,1.56.22.19.34.16.53,0,.75-.78,1.49-1.58,2.17-2.43A30.58,30.58,0,0,0,80.69,58.5H81.8A30.07,30.07,0,0,1,79.32,65a33.54,33.54,0,0,1-6.61,8.81c-.27.26-.43.29-.72,0a31.64,31.64,0,0,0-2.59-2.17.45.45,0,0,0-.68,0,27.36,27.36,0,0,1-12.17,6.1,27.85,27.85,0,0,1-21.84-4.08,20.33,20.33,0,0,1-2.56-2c-.31-.28-.52-.31-.85,0-.88.71-1.77,1.4-2.59,2.18-.21.21-.34.23-.56,0A32.17,32.17,0,0,1,19,58.5h1.12a2,2,0,0,0,.06.23A30.47,30.47,0,0,0,24.2,67.6a32.43,32.43,0,0,0,4,4.84c.15.15.25.26.47.08.67-.58,1.36-1.13,2.06-1.68.18-.14.16-.2,0-.36a31.55,31.55,0,0,1-2.21-2.41,28,28,0,0,1-5.12-9.57h1.13a23.7,23.7,0,0,0,1.35,3.41,27.63,27.63,0,0,0,5.72,7.93c.16.16.27.17.48,0a32.06,32.06,0,0,1,8.62-4.1,13.71,13.71,0,0,1,4.7-.9c.28,0,.3-.13.3-.35,0-1.19,0-2.39,0-3.59,0-.26.07-.35.34-.34h6.9A1.93,1.93,0,0,1,55,62.67c0,.61,0,1.23,0,1.84,0,.28.07.39.36.37a8.37,8.37,0,0,1,2.73.36,32.88,32.88,0,0,1,10.56,4.61.38.38,0,0,0,.58,0,28,28,0,0,0,5.09-6.71A24.62,24.62,0,0,0,76.26,58.49Zm-33,7.77a1.22,1.22,0,0,0-.2,0A32.39,32.39,0,0,0,33,70.59c-.27.17-.26.26,0,.45A27.66,27.66,0,0,0,39.12,75a26.75,26.75,0,0,0,16.09,2,27.06,27.06,0,0,0,12.6-5.9c.32-.26.22-.36,0-.53a32.17,32.17,0,0,0-10-4.27.28.28,0,0,0-.33,0c.62.79,1.21,1.58,1.83,2.35A1.18,1.18,0,0,1,59.53,70a1.16,1.16,0,0,1-1.16.6H42.29a1.11,1.11,0,0,1-.92-1.9C42,67.92,42.6,67.11,43.26,66.26ZM58.53,69.5l-2.61-3.4c-.22-.29-.53-.17-.79-.14s-.12.29-.13.45c0,.44,0,.87,0,1.31,0,.23,0,.33-.31.33H46c-.25,0-.33-.08-.32-.32,0-.51,0-1,0-1.51,0-.1,0-.26-.11-.27-.32,0-.65-.11-.91.25-.73,1-1.51,2-2.26,3-.08.1-.22.17-.17.35Zm-8.21-4.62h3.27c.23,0,.34,0,.33-.31,0-.65,0-1.31,0-2a.88.88,0,0,0-.92-.93H47c-.24,0-.3.09-.3.31,0,.83,0,1.66,0,2.49,0,.31.07.42.4.41C48.2,64.86,49.26,64.87,50.32,64.88Zm0,1.06c-1.1,0-2.2,0-3.3,0-.24,0-.36.06-.32.32a1,1,0,0,1,0,.24c-.07.38.06.51.47.5,2,0,4,0,6,0,.68,0,.66,0,.68-.69,0-.3-.11-.36-.38-.36C52.49,66,51.43,65.94,50.37,65.94Z" transform="translate(-1 -1.01)"/><path class="cls-3" d="M80.71,38.62a6.31,6.31,0,0,1-1.15,0,30.38,30.38,0,0,0-6.45-10,31,31,0,0,0-23.57-9.73A29.11,29.11,0,0,0,41,20.28,31.27,31.27,0,0,0,22.71,35.44a18.65,18.65,0,0,0-1.46,3.18,5.72,5.72,0,0,1-1.17,0,27.84,27.84,0,0,1,2.56-5.23A32.43,32.43,0,0,1,39.17,19.76a31.43,31.43,0,0,1,9.59-2A31.85,31.85,0,0,1,65,21.25,32.3,32.3,0,0,1,79.12,35.09,25.4,25.4,0,0,1,80.71,38.62Z" transform="translate(-1 -1.01)"/><path class="cls-1" d="M74.92,38.62l-.65,0H25.87a3,3,0,0,1,.17-.41A26.92,26.92,0,0,1,36.87,26.71,26.62,26.62,0,0,1,55,23.47a26,26,0,0,1,8.58,3,27.18,27.18,0,0,1,8.53,7.4A24.59,24.59,0,0,1,74.92,38.62Zm-9.43-3.95c-.68-1.48-1.31-2.88-1.95-4.27-.14-.31-.3-.59-.69-.6s-.58.28-.73.6c-.61,1.35-1.22,2.7-1.84,4.05-.1.23-.2.46-.32.7l.17,0a1.13,1.13,0,0,0,1.14-.92.58.58,0,0,1,.71-.47,9.38,9.38,0,0,0,1.59,0,.76.76,0,0,1,.93.61.94.94,0,0,0,.74.72c.37.07.41,0,.37-.35.29.13.59.23.75-.15.1-.22,0-.38-.23-.45C65.77,34,65.6,34.25,65.49,34.67Zm-15.57-.86c0-.31,0-.63,0-.94a1.42,1.42,0,0,0-.77-1.38,1.49,1.49,0,0,0-1.62.08.4.4,0,0,1-.53,0,1.52,1.52,0,0,0-2.38,1.11c0,.76,0,1.53,0,2.29,0,.2.08.23.24.18a.79.79,0,0,0,.56-.82c0-.46,0-.92,0-1.38s.27-.84.73-.83.73.29.74.83,0,1,0,1.43a.77.77,0,0,0,.43.73c.24.11.38.09.37-.23,0-.67,0-1.34,0-2a.72.72,0,1,1,1.44,0c0,.47,0,1,0,1.42a.84.84,0,0,0,.49.83c.2.09.33.08.31-.2S49.92,34.18,49.92,33.81ZM37.58,35.19a3,3,0,0,0,2.14-.89c.12-.13.37-.27.28-.44a.55.55,0,0,0-.67-.14,2.16,2.16,0,0,0-.39.22,2.38,2.38,0,0,1-1.57.46,2.09,2.09,0,0,1-2-1.78,2,2,0,0,1,1.56-2,2.29,2.29,0,0,1,2.2.55.9.9,0,0,0,.68.32c.13,0,.3,0,.37-.13s-.07-.22-.14-.32a3,3,0,0,0-2.91-1.26A2.74,2.74,0,0,0,34.65,33,2.94,2.94,0,0,0,37.58,35.19Zm12.74-.5h0c0,.53,0,1.06,0,1.59,0,.28.12.3.32.21a.77.77,0,0,0,.48-.78c0-.8,0-1.61,0-2.41a1.1,1.1,0,0,1,.75-1.1,1.37,1.37,0,0,1,1.51.27,1.07,1.07,0,0,1-.2,1.69,1.61,1.61,0,0,1-1.45.07c-.12,0-.23-.24-.35-.13s-.08.34,0,.5a.66.66,0,0,0,.5.5,2.08,2.08,0,0,0,2.57-1.3,1.78,1.78,0,0,0-.51-1.94,2.12,2.12,0,0,0-2.36-.4,1.82,1.82,0,0,0-1.22,1.68C50.29,33.66,50.32,34.18,50.32,34.69Zm-8,.5a2.09,2.09,0,0,0,2.1-1.53,1.92,1.92,0,0,0-1.54-2.3,2.16,2.16,0,0,0-2.64,1.4A2,2,0,0,0,42.27,35.19ZM56,29.79h0c-.86,0-1.72,0-2.57,0-.32,0-.31.12-.21.34a.78.78,0,0,0,.72.45c.42,0,.84,0,1.26,0s.39.08.38.39c0,1.1,0,2.2,0,3.3a.84.84,0,0,0,.28.73.42.42,0,0,0,.44.14c.14-.07.07-.25.07-.37V31.1c0-.52,0-.52.53-.52.37,0,.74,0,1.1,0a.77.77,0,0,0,.71-.41c.13-.24.13-.39-.23-.39C57.61,29.8,56.78,29.79,56,29.79Zm3.84,2.94h0V30.65a.79.79,0,0,0-.55-.82c-.19-.06-.27,0-.27.2,0,1.44,0,2.88,0,4.32a.79.79,0,0,0,.44.74c.24.12.4.13.38-.24C59.78,34.15,59.8,33.44,59.8,32.73Z" transform="translate(-1 -1.01)"/><path class="cls-1" d="M76.26,58.49a24.62,24.62,0,0,1-2,4.61,28,28,0,0,1-5.09,6.71.38.38,0,0,1-.58,0,32.88,32.88,0,0,0-10.56-4.61,8.37,8.37,0,0,0-2.73-.36c-.29,0-.37-.09-.36-.37,0-.61,0-1.23,0-1.84a1.93,1.93,0,0,0-2.07-2.07H46c-.27,0-.34.08-.34.34,0,1.2,0,2.4,0,3.59,0,.22,0,.37-.3.35a13.71,13.71,0,0,0-4.7.9,32.06,32.06,0,0,0-8.62,4.1c-.21.13-.32.12-.48,0a27.63,27.63,0,0,1-5.72-7.93,23.7,23.7,0,0,1-1.35-3.41l.45,0H76.26Z" transform="translate(-1 -1.01)"/><path class="cls-1" d="M21.25,38.62a18.65,18.65,0,0,1,1.46-3.18A31.27,31.27,0,0,1,41,20.28a29.11,29.11,0,0,1,8.54-1.42,31,31,0,0,1,23.57,9.73,30.38,30.38,0,0,1,6.45,10H76.12a28.06,28.06,0,0,0-6.21-8.77A28.21,28.21,0,0,0,28.07,33a25.3,25.3,0,0,0-3.39,5.65Z" transform="translate(-1 -1.01)"/><path class="cls-3" d="M24.68,38.62A25.3,25.3,0,0,1,28.07,33a27.94,27.94,0,0,1,11.09-8.63,27.62,27.62,0,0,1,9.38-2.27A28.26,28.26,0,0,1,76.12,38.62a6.87,6.87,0,0,1-1.2,0,24.59,24.59,0,0,0-2.86-4.74,27.18,27.18,0,0,0-8.53-7.4,26,26,0,0,0-8.58-3,26.62,26.62,0,0,0-18.08,3.24A26.92,26.92,0,0,0,26,38.22a3,3,0,0,0-.17.41Z" transform="translate(-1 -1.01)"/><path class="cls-1" d="M23.39,58.5a28,28,0,0,0,5.12,9.57,31.55,31.55,0,0,0,2.21,2.41c.15.16.17.22,0,.36-.7.55-1.39,1.1-2.06,1.68-.22.18-.32.07-.47-.08a32.43,32.43,0,0,1-4-4.84,30.47,30.47,0,0,1-4.05-8.87,2,2,0,0,1-.06-.23Z" transform="translate(-1 -1.01)"/><path class="cls-1" d="M80.69,58.5A30.58,30.58,0,0,1,74.77,70c-.68.85-1.42,1.65-2.17,2.43-.19.19-.31.22-.53,0-.63-.53-1.28-1-1.94-1.56-.24-.19-.21-.29,0-.49a28.29,28.29,0,0,0,5.75-8,23.76,23.76,0,0,0,1.51-3.91C78.49,58.46,79.59,58.47,80.69,58.5Zm-8,13.41a.39.39,0,0,0-.42-.36.37.37,0,0,0-.41.37c0,.26.18.38.43.38A.39.39,0,0,0,72.71,71.91Z" transform="translate(-1 -1.01)"/><path class="cls-1" d="M48.92,48.47c0-1.4,0-2.8,0-4.2,0-.3,0-.42.39-.42q3.06,0,6.12,0c.3,0,.42.06.39.37s.15.84-.08,1.06-.69.07-1.06.07H50.93c-.29,0-.37.08-.36.36,0,.6,0,1.2,0,1.8,0,.3.11.35.38.35h3.88c.29,0,.46,0,.41.39s.15.84-.09,1-.67.06-1,.06c-1,0-2.09,0-3.14,0-.35,0-.42.11-.42.44,0,1,0,2,0,3,0,.29-.09.37-.37.35a8,8,0,0,0-1,0c-.26,0-.31-.08-.31-.32C48.93,51.35,48.92,49.91,48.92,48.47Z" transform="translate(-1 -1.01)"/><path class="cls-1" d="M43.3,49.23c0-1.16,0-2.32,0-3.47,0-.28-.07-.38-.36-.37-.76,0-1.52,0-2.29,0-.22,0-.31-.06-.3-.3s-.12-.9.07-1.15.74-.08,1.13-.08c2,0,3.95,0,5.92,0,.34,0,.46.1.41.44s.16.84-.09,1-.68.06-1,.06H45.55c-.69,0-.6-.08-.6.62,0,2.23,0,4.46,0,6.69,0,.34-.09.46-.43.42s-.93.18-1.16-.1-.06-.75-.06-1.14C43.3,51,43.3,50.11,43.3,49.23Z" transform="translate(-1 -1.01)"/><path class="cls-1" d="M58.94,46.65c0-.32,0-.65,0-1s.09-.33.34-.31.86-.15,1.1.07.06.72.08,1.09,0,.71,0,1.06.06.31.29.3c.64,0,1.28,0,1.92,0,.25,0,.32.06.33.32,0,1.16,0,1.16-1.11,1.16-.35,0-.71,0-1.06,0s-.39.1-.38.39c0,.61,0,1.23,0,1.84,0,.26-.08.33-.33.31s-.87.12-1.11-.06-.06-.72-.08-1.09,0-.71,0-1.06-.06-.33-.32-.33c-.63,0-1.27,0-1.91,0-.24,0-.33-.05-.33-.31,0-1.16,0-1.16,1.11-1.16.35,0,.71,0,1.06,0s.43-.05.39-.37S58.94,46.94,58.94,46.65Z" transform="translate(-1 -1.01)"/><path class="cls-1" d="M39.38,48.46c0,1.43,0,2.85,0,4.28,0,.3-.07.42-.38.38S38,53.3,37.8,53s-.06-.78-.06-1.19q0-3.78,0-7.58c0-.31.07-.44.4-.4a6.76,6.76,0,0,0,.9,0c.28,0,.36.07.36.36C39.38,45.63,39.38,47.05,39.38,48.46Z" transform="translate(-1 -1.01)"/><path class="cls-1" d="M43.26,66.26c-.66.85-1.26,1.66-1.89,2.44a1.11,1.11,0,0,0,.92,1.9H58.37a1.16,1.16,0,0,0,1.16-.6,1.18,1.18,0,0,0-.24-1.33c-.62-.77-1.21-1.56-1.83-2.35a.28.28,0,0,1,.33,0,32.17,32.17,0,0,1,10,4.27c.27.17.37.27,0,.53A27.06,27.06,0,0,1,55.21,77a26.75,26.75,0,0,1-16.09-2A27.66,27.66,0,0,1,32.93,71c-.24-.19-.25-.28,0-.45a32.39,32.39,0,0,1,10.11-4.33A1.22,1.22,0,0,1,43.26,66.26Z" transform="translate(-1 -1.01)"/><path class="cls-1" d="M58.53,69.5H42.23c0-.18.09-.25.17-.35.75-1,1.53-2,2.26-3,.26-.36.59-.25.91-.25.15,0,.11.17.11.27,0,.5,0,1,0,1.51,0,.24.07.32.32.32h8.69c.26,0,.32-.1.31-.33,0-.44,0-.87,0-1.31,0-.16-.11-.42.13-.45s.57-.15.79.14Z" transform="translate(-1 -1.01)"/><path class="cls-1" d="M50.32,64.87c-1.06,0-2.12,0-3.18,0-.33,0-.41-.1-.4-.41,0-.83,0-1.66,0-2.49,0-.22.06-.31.3-.31h6a.88.88,0,0,1,.92.93c0,.65,0,1.31,0,2,0,.27-.1.31-.33.31Z" transform="translate(-1 -1.01)"/><path class="cls-1" d="M50.37,65.94c1.06,0,2.12,0,3.18,0,.27,0,.38.06.38.36,0,.69,0,.69-.68.69-2,0-4,0-6,0-.41,0-.54-.12-.47-.5a1,1,0,0,0,0-.24c0-.26.08-.32.32-.32C48.17,66,49.27,65.94,50.37,65.94Z" transform="translate(-1 -1.01)"/><path class="cls-2" d="M65.49,34.67c.11-.42.28-.63.64-.51.2.07.33.23.23.45-.16.38-.46.28-.75.15,0,.4,0,.42-.37.35a.94.94,0,0,1-.74-.72.76.76,0,0,0-.93-.61,9.38,9.38,0,0,1-1.59,0,.58.58,0,0,0-.71.47,1.13,1.13,0,0,1-1.14.92l-.17,0c.12-.24.22-.47.32-.7.62-1.35,1.23-2.7,1.84-4.05.15-.32.32-.62.73-.6s.55.29.69.6C64.18,31.79,64.81,33.19,65.49,34.67ZM63.86,33l-1-2.21-1,2.24h1.83Z" transform="translate(-1 -1.01)"/><path class="cls-2" d="M49.92,33.81c0,.37,0,.73,0,1.1s-.11.29-.31.2a.84.84,0,0,1-.49-.83c0-.47,0-1,0-1.42a.72.72,0,1,0-1.44,0c0,.66,0,1.33,0,2,0,.32-.13.34-.37.23a.77.77,0,0,1-.43-.73c0-.47,0-.95,0-1.43s-.28-.83-.74-.83-.72.29-.73.83,0,.92,0,1.38a.79.79,0,0,1-.56.82c-.16,0-.24,0-.24-.18,0-.76,0-1.53,0-2.29A1.52,1.52,0,0,1,47,31.56a.4.4,0,0,0,.53,0,1.49,1.49,0,0,1,1.62-.08,1.42,1.42,0,0,1,.77,1.38C49.91,33.18,49.92,33.5,49.92,33.81Z" transform="translate(-1 -1.01)"/><path class="cls-2" d="M37.58,35.19A2.94,2.94,0,0,1,34.65,33a2.74,2.74,0,0,1,2.49-3.24A3,3,0,0,1,40.05,31c.07.1.2.2.14.32s-.24.12-.37.13a.9.9,0,0,1-.68-.32,2.29,2.29,0,0,0-2.2-.55,2,2,0,0,0-1.56,2,2.09,2.09,0,0,0,2,1.78,2.38,2.38,0,0,0,1.57-.46,2.16,2.16,0,0,1,.39-.22.55.55,0,0,1,.67.14c.09.17-.16.31-.28.44A3,3,0,0,1,37.58,35.19Z" transform="translate(-1 -1.01)"/><path class="cls-2" d="M50.32,34.69c0-.51,0-1,0-1.55a1.82,1.82,0,0,1,1.22-1.68,2.12,2.12,0,0,1,2.36.4,1.78,1.78,0,0,1,.51,1.94,2.08,2.08,0,0,1-2.57,1.3.66.66,0,0,1-.5-.5c-.05-.16-.1-.38,0-.5s.23.09.35.13a1.61,1.61,0,0,0,1.45-.07,1.07,1.07,0,0,0,.2-1.69,1.37,1.37,0,0,0-1.51-.27,1.1,1.1,0,0,0-.75,1.1c0,.8,0,1.61,0,2.41a.77.77,0,0,1-.48.78c-.2.09-.33.07-.32-.21,0-.53,0-1.06,0-1.59Z" transform="translate(-1 -1.01)"/><path class="cls-2" d="M42.27,35.19a2,2,0,0,1-2.08-2.43,2.16,2.16,0,0,1,2.64-1.4,1.92,1.92,0,0,1,1.54,2.3A2.09,2.09,0,0,1,42.27,35.19Zm0-3.09A1.18,1.18,0,0,0,41,33.59a1.38,1.38,0,0,0,1.27.8,1.37,1.37,0,0,0,1.29-.83C43.81,32.82,43.18,32.11,42.27,32.1Z" transform="translate(-1 -1.01)"/><path class="cls-2" d="M56,29.79c.82,0,1.65,0,2.48,0,.36,0,.36.15.23.39a.77.77,0,0,1-.71.41c-.36,0-.73,0-1.1,0-.53,0-.53,0-.53.52v3.67c0,.12.07.3-.07.37a.42.42,0,0,1-.44-.14.84.84,0,0,1-.28-.73c0-1.1,0-2.2,0-3.3,0-.31-.07-.41-.38-.39s-.84,0-1.26,0a.78.78,0,0,1-.72-.45c-.1-.22-.11-.35.21-.34.85,0,1.71,0,2.57,0Z" transform="translate(-1 -1.01)"/><path class="cls-2" d="M59.8,32.73c0,.71,0,1.42,0,2.12,0,.37-.14.36-.38.24a.79.79,0,0,1-.44-.74c0-1.44,0-2.88,0-4.32,0-.23.08-.26.27-.2a.79.79,0,0,1,.55.82v2.08Z" transform="translate(-1 -1.01)"/><path class="cls-3" d="M72.71,71.91a.39.39,0,0,1-.4.39c-.25,0-.43-.12-.43-.38a.37.37,0,0,1,.41-.37A.39.39,0,0,1,72.71,71.91Z" transform="translate(-1 -1.01)"/><path class="cls-1" d="M63.86,33l-.2,0H61.83l1-2.24Z" transform="translate(-1 -1.01)"/><path class="cls-1" d="M42.27,32.1c.91,0,1.54.72,1.29,1.46a1.37,1.37,0,0,1-1.29.83,1.38,1.38,0,0,1-1.27-.8A1.18,1.18,0,0,1,42.27,32.1Z" transform="translate(-1 -1.01)"/></svg>