<svg id="Layer_1" data-name="Layer 1" xmlns="http://www.w3.org/2000/svg" viewBox="0 0 91 91"><defs><style>.cls-1{fill:#fff;}.cls-2{fill:#df2927;}.cls-3{fill:#6d767f;}.cls-4{fill:#fefefe;}</style></defs><rect class="cls-1" width="91" height="91" rx="20.94"/><path class="cls-2" d="M85.36,39l3.46,0a3.3,3.3,0,0,1,3.5,3.27c0,.14,0,.28,0,.42,0,6.27,0,12.54,0,18.8,0,.43-.11.56-.55.55-1.72,0-3.44,0-5.16,0H85.34c-1.28,0-2.56,0-3.84,0H80.19l-.47,0H20.66l-.52,0H13.69l-2.56,0a3.3,3.3,0,0,1-3.46-3.45c0-6.35,0-12.7,0-19.05,0-.44.12-.55.55-.54,2.26,0,4.52,0,6.77,0a7.73,7.73,0,0,0,1.36,0H77.88l.76,0A8.18,8.18,0,0,0,80,39h4A7.39,7.39,0,0,0,85.36,39ZM48.47,50.4c0,1.67,0,3.34,0,5,0,.28.06.41.36.39a7.23,7.23,0,0,1,1.14,0c.33,0,.43-.08.43-.42,0-1.15,0-2.3,0-3.46,0-.38.08-.51.48-.5,1.22,0,2.43,0,3.65,0,.41,0,1,.13,1.19-.08s0-.8.1-1.22-.14-.45-.48-.45c-1.5,0-3,0-4.5,0-.32,0-.45-.06-.44-.41,0-.7,0-1.39,0-2.09,0-.33.09-.43.42-.42,1.46,0,2.91,0,4.36,0,.42,0,1,.18,1.23-.08s0-.8.09-1.22S56.36,45,56,45h-7.1c-.4,0-.47.12-.46.48C48.47,47.14,48.46,48.77,48.47,50.4Zm-6.53.87v3.08c0,.46-.15,1.06.08,1.33s.89.06,1.35.11.5-.09.49-.48q0-3.89,0-7.77c0-.81-.12-.71.69-.72H46c.41,0,.94.13,1.19-.07s.06-.8.11-1.21-.08-.51-.48-.5c-2.29,0-4.58,0-6.87,0-.45,0-1.07-.21-1.31.1s0,.88-.08,1.33c0,.28.08.35.35.34.88,0,1.77,0,2.65,0,.34,0,.42.11.42.43C41.93,48.59,41.94,49.93,41.94,51.27Zm18.15-3a8.32,8.32,0,0,0,0,1c0,.37-.12.46-.46.43s-.82,0-1.23,0c-1.33,0-1.32,0-1.29,1.34,0,.3.1.37.38.37.74,0,1.48,0,2.23,0,.29,0,.38.09.37.37s0,.82,0,1.23-.2,1,.09,1.27.85,0,1.29.08c.28,0,.38-.07.37-.37,0-.71,0-1.42,0-2.13,0-.34.06-.49.44-.46s.82,0,1.23,0c1.32,0,1.31,0,1.28-1.34,0-.3-.09-.38-.38-.37-.74,0-1.48,0-2.22,0-.27,0-.36-.08-.35-.35s0-.82,0-1.23.2-1-.09-1.27-.84,0-1.28-.08c-.28,0-.4.07-.38.37S60.09,47.91,60.09,48.28Zm-22.7,2.1c0-1.64,0-3.28,0-4.92,0-.33-.09-.45-.42-.42a6,6,0,0,1-1,0c-.38,0-.47.1-.47.47,0,2.93,0,5.87,0,8.8,0,.47-.16,1.1.08,1.37s.92.06,1.4.11.45-.09.44-.44C37.38,53.69,37.39,52,37.39,50.38Z" transform="translate(-4.5 -4.5)"/><path class="cls-3" d="M80.19,62H81.5a27.46,27.46,0,0,1-1.75,4.54,33,33,0,0,1-6.68,9.3c-.23.23-.27.35,0,.56.76.59,1.51,1.19,2.24,1.82.26.22.4.18.62,0,.87-.91,1.73-1.83,2.52-2.82A35.41,35.41,0,0,0,85.34,62h1.29a34.81,34.81,0,0,1-2.88,7.59,38.76,38.76,0,0,1-7.67,10.22c-.32.31-.5.34-.83,0a36.31,36.31,0,0,0-3-2.52.51.51,0,0,0-.79,0,31.79,31.79,0,0,1-14.12,7.07A32.33,32.33,0,0,1,32,79.7a23.25,23.25,0,0,1-3-2.26.63.63,0,0,0-1,0C27,78.22,26,79,25,79.93c-.24.23-.39.27-.65,0A37.39,37.39,0,0,1,13.69,62H15a2.8,2.8,0,0,0,.06.28A35.56,35.56,0,0,0,19.77,72.6a36.64,36.64,0,0,0,4.62,5.62c.17.17.29.3.54.09.78-.67,1.58-1.31,2.39-1.94.21-.17.19-.24,0-.43a37.61,37.61,0,0,1-2.56-2.79A32.49,32.49,0,0,1,18.83,62h1.31a26.48,26.48,0,0,0,1.56,4,32.31,32.31,0,0,0,6.64,9.21.37.37,0,0,0,.56,0,37.13,37.13,0,0,1,10-4.76,15.89,15.89,0,0,1,5.45-1c.33,0,.35-.14.35-.4,0-1.39,0-2.78,0-4.17,0-.3.08-.4.4-.4h8a2.25,2.25,0,0,1,2.4,2.4c0,.71,0,1.42,0,2.13,0,.33.08.46.42.43a9.74,9.74,0,0,1,3.17.42,38.24,38.24,0,0,1,12.26,5.35.44.44,0,0,0,.67,0,32.22,32.22,0,0,0,5.9-7.78A28,28,0,0,0,80.19,62Zm-38.3,9h-.23a37.59,37.59,0,0,0-11.74,5c-.31.2-.29.3,0,.52a32.3,32.3,0,0,0,7.19,4.54,31,31,0,0,0,18.68,2.36,31.44,31.44,0,0,0,14.63-6.85c.37-.3.26-.41-.06-.62a37.93,37.93,0,0,0-11.57-5,.36.36,0,0,0-.38,0c.71.92,1.4,1.84,2.12,2.74a1.37,1.37,0,0,1,.28,1.53,1.33,1.33,0,0,1-1.34.7q-9.34,0-18.67,0a1.32,1.32,0,0,1-1.34-.71,1.34,1.34,0,0,1,.27-1.49C40.42,73,41.13,72,41.89,71.05ZM59.62,74.8l-3-3.94c-.26-.33-.62-.2-.92-.16s-.14.34-.15.52c0,.51,0,1,0,1.52,0,.27-.06.39-.36.39H45.07c-.29,0-.38-.1-.37-.38,0-.59,0-1.17,0-1.76,0-.11,0-.29-.13-.3-.37,0-.75-.13-1.06.29-.85,1.16-1.75,2.28-2.62,3.42-.09.11-.25.2-.19.4Zm-9.53-5.36h3.79c.27,0,.4,0,.39-.36,0-.76,0-1.51,0-2.27a1,1,0,0,0-1.06-1.08H46.28c-.27,0-.35.1-.34.36,0,1,0,1.92,0,2.89,0,.36.08.49.47.48C47.63,69.42,48.86,69.44,50.09,69.44Zm.06,1.23c-1.28,0-2.56,0-3.83,0-.28,0-.42.06-.38.36a1.41,1.41,0,0,1,0,.29c-.07.44.07.58.55.58,2.33,0,4.66,0,7,0,.79,0,.77,0,.78-.81,0-.35-.12-.42-.43-.41C52.61,70.68,51.38,70.67,50.15,70.67Z" transform="translate(-4.5 -4.5)"/><path class="cls-3" d="M85.36,39A7.39,7.39,0,0,1,84,39a35,35,0,0,0-7.49-11.64A36,36,0,0,0,49.18,16a33.63,33.63,0,0,0-9.91,1.65A36.3,36.3,0,0,0,18,35.27,22.38,22.38,0,0,0,16.34,39,7.73,7.73,0,0,1,15,39a32.51,32.51,0,0,1,3-6.07,37.57,37.57,0,0,1,19.2-15.81A36.47,36.47,0,0,1,48.28,14.8a36.9,36.9,0,0,1,18.86,4A37.36,37.36,0,0,1,83.51,34.86,29,29,0,0,1,85.36,39Z" transform="translate(-4.5 -4.5)"/><path class="cls-3" d="M20.32,39a29.31,29.31,0,0,1,3.94-6.56,32.6,32.6,0,0,1,12.87-10A32,32,0,0,1,48,19.75,32.8,32.8,0,0,1,80,39a8.18,8.18,0,0,1-1.4,0,28.24,28.24,0,0,0-3.32-5.5,31.56,31.56,0,0,0-9.9-8.6,30.41,30.41,0,0,0-10-3.49,31,31,0,0,0-21,3.76A31.35,31.35,0,0,0,21.9,38.49c-.07.15-.13.32-.2.48Z" transform="translate(-4.5 -4.5)"/><path class="cls-4" d="M48.46,50.4c0-1.63,0-3.26,0-4.88,0-.36.06-.49.46-.48H56c.34,0,.49.07.45.44s.17,1-.09,1.22-.81.08-1.23.08c-1.45,0-2.9,0-4.36,0-.33,0-.43.09-.42.42,0,.7,0,1.39,0,2.09,0,.35.12.41.44.41,1.5,0,3,0,4.5,0,.34,0,.53,0,.48.45s.17,1-.1,1.22-.78.08-1.19.08c-1.22,0-2.43,0-3.65,0-.4,0-.49.12-.48.5,0,1.16,0,2.31,0,3.46,0,.34-.1.44-.43.42a7.23,7.23,0,0,0-1.14,0c-.3,0-.36-.11-.36-.39Q48.47,52.91,48.46,50.4Z" transform="translate(-4.5 -4.5)"/><path class="cls-4" d="M41.94,51.27c0-1.34,0-2.68,0-4,0-.32-.08-.44-.42-.43-.88,0-1.77,0-2.65,0-.27,0-.37-.06-.35-.34,0-.45-.14-1,.08-1.33s.86-.1,1.31-.1c2.29,0,4.58,0,6.87,0,.4,0,.53.11.48.5s.19,1-.11,1.21-.78.06-1.19.07H44.55c-.81,0-.69-.09-.69.72q0,3.89,0,7.77c0,.39-.1.53-.49.48S42.28,56,42,55.68s-.07-.87-.08-1.33Z" transform="translate(-4.5 -4.5)"/><path class="cls-4" d="M60.09,48.28c0-.37,0-.75,0-1.13s.1-.39.38-.37c.44,0,1-.17,1.28.08s.07.84.09,1.27,0,.82,0,1.23.08.36.35.35c.74,0,1.48,0,2.22,0,.29,0,.38.07.38.37,0,1.34,0,1.34-1.28,1.34-.41,0-.83,0-1.23,0s-.45.12-.44.46c0,.71,0,1.42,0,2.13,0,.3-.09.38-.37.37-.44,0-1,.14-1.29-.08s-.08-.83-.09-1.27,0-.82,0-1.23-.08-.38-.37-.37c-.75,0-1.49,0-2.23,0-.28,0-.38-.07-.38-.37,0-1.34,0-1.34,1.29-1.34.41,0,.82,0,1.23,0s.5-.06.46-.43A8.32,8.32,0,0,1,60.09,48.28Z" transform="translate(-4.5 -4.5)"/><path class="cls-4" d="M37.39,50.38c0,1.66,0,3.31,0,5,0,.35-.09.49-.44.44s-1.13.21-1.4-.11-.08-.9-.08-1.37c0-2.93,0-5.87,0-8.8,0-.37.09-.51.47-.47a6,6,0,0,0,1,0c.33,0,.42.09.42.42C37.38,47.1,37.39,48.74,37.39,50.38Z" transform="translate(-4.5 -4.5)"/><path class="cls-2" d="M67.7,34.37c.13-.48.33-.73.74-.58a.37.37,0,0,1,.27.52c-.19.44-.54.32-.88.17,0,.46,0,.49-.42.41a1.1,1.1,0,0,1-.87-.85.86.86,0,0,0-1.07-.69,11.43,11.43,0,0,1-1.85,0,.68.68,0,0,0-.82.55A1.32,1.32,0,0,1,61.47,35l-.19,0,.37-.81c.71-1.57,1.43-3.13,2.14-4.7.16-.37.36-.72.84-.7s.64.33.81.69C66.17,31,66.91,32.65,67.7,34.37Zm-1.89-1.94-1.17-2.57-1.19,2.6h2.12Z" transform="translate(-4.5 -4.5)"/><path class="cls-2" d="M49.62,33.38c0,.42,0,.85,0,1.27s-.14.34-.37.24a1,1,0,0,1-.57-1c0-.56,0-1.11,0-1.66a.84.84,0,1,0-1.67,0c0,.77,0,1.55,0,2.32,0,.38-.15.4-.42.27a.87.87,0,0,1-.51-.84c0-.55,0-1.11,0-1.66s-.32-1-.85-1-.84.33-.85,1V34a.93.93,0,0,1-.65,1c-.19.06-.29,0-.28-.21,0-.89,0-1.77,0-2.65a1.76,1.76,0,0,1,2.77-1.29.45.45,0,0,0,.61,0,1.71,1.71,0,0,1,1.88-.08,1.64,1.64,0,0,1,.89,1.6C49.61,32.65,49.62,33,49.62,33.38Z" transform="translate(-4.5 -4.5)"/><path class="cls-2" d="M35.3,35a3.43,3.43,0,0,1-3.41-2.53,3.2,3.2,0,0,1,2.9-3.77,3.49,3.49,0,0,1,3.38,1.47c.08.11.23.23.15.38s-.27.13-.43.14a1.07,1.07,0,0,1-.78-.37,2.64,2.64,0,0,0-2.55-.64A2.26,2.26,0,0,0,32.75,32a2.41,2.41,0,0,0,2.3,2.06,2.78,2.78,0,0,0,1.83-.53,2,2,0,0,1,.45-.26c.28-.09.62-.1.77.16s-.18.37-.32.52A3.5,3.5,0,0,1,35.3,35Z" transform="translate(-4.5 -4.5)"/><path class="cls-2" d="M50.08,34.4c0-.6,0-1.2,0-1.8a2.09,2.09,0,0,1,1.41-2,2.48,2.48,0,0,1,2.74.46,2,2,0,0,1,.59,2.25,2.41,2.41,0,0,1-3,1.51.78.78,0,0,1-.58-.57c-.06-.2-.12-.44,0-.59s.27.1.41.15a1.84,1.84,0,0,0,1.68-.08,1.23,1.23,0,0,0,.24-2,1.6,1.6,0,0,0-1.75-.32A1.29,1.29,0,0,0,51,32.79v2.79a.91.91,0,0,1-.55.91c-.24.1-.39.08-.38-.24,0-.62,0-1.24,0-1.85Z" transform="translate(-4.5 -4.5)"/><path class="cls-2" d="M40.74,35a2.31,2.31,0,0,1-2.41-2.82,2.51,2.51,0,0,1,3.06-1.62,2.23,2.23,0,0,1,1.79,2.67A2.42,2.42,0,0,1,40.74,35Zm0-3.58c-1.07,0-1.81.87-1.48,1.74a1.58,1.58,0,0,0,1.48.91,1.56,1.56,0,0,0,1.49-1C42.53,32.23,41.8,31.4,40.75,31.39Z" transform="translate(-4.5 -4.5)"/><path class="cls-2" d="M56.63,28.71c1,0,1.92,0,2.88,0,.42,0,.42.17.27.46a.91.91,0,0,1-.82.47H57.68c-.62,0-.62,0-.62.6q0,2.13,0,4.26c0,.14.08.35-.08.43s-.36,0-.51-.16a1,1,0,0,1-.33-.85c0-1.28,0-2.56,0-3.84,0-.35-.08-.47-.44-.45s-1,0-1.47,0a.88.88,0,0,1-.83-.52c-.12-.25-.13-.4.24-.4,1,0,2,0,3,0Z" transform="translate(-4.5 -4.5)"/><path class="cls-2" d="M61.09,32.12c0,.82,0,1.65,0,2.47,0,.42-.18.41-.45.27a.93.93,0,0,1-.51-.85c0-1.68,0-3.35,0-5,0-.25.1-.3.31-.22a.92.92,0,0,1,.64.95v2.41Z" transform="translate(-4.5 -4.5)"/><path class="cls-3" d="M76.08,77.61a.45.45,0,0,1-.46.44c-.29,0-.51-.13-.5-.44s.21-.41.47-.42A.46.46,0,0,1,76.08,77.61Z" transform="translate(-4.5 -4.5)"/></svg>