<svg id="Layer_1" data-name="Layer 1" xmlns="http://www.w3.org/2000/svg" viewBox="0 0 50 50"><defs><style>.cls-1{fill:#011926;}.cls-2{fill:#00f3ab;}</style></defs><rect class="cls-1" width="50" height="50" rx="18.81"/><path class="cls-2" d="M27.43,17.85a12,12,0,1,0-.93,15.88L19,26.26Z"/><path class="cls-2" d="M25.45,27.75l3.14,3.14A11.81,11.81,0,0,0,30,26.21l-1.48-1.48Z"/><path class="cls-2" d="M30,26.21l7.05,7,7-7L31.51,13.77l-4.08,4.08A11.91,11.91,0,0,1,30,25.26C30,25.58,30,25.89,30,26.21Z"/><path class="cls-2" d="M26.5,33.73l5,5L34,36.28l-5.39-5.39A11.91,11.91,0,0,1,26.5,33.73Z"/></svg>