<svg width="100%" height="100%" viewBox="0 0 512 512" version="1.1" xmlns="http://www.w3.org/2000/svg" xmlns:xlink="http://www.w3.org/1999/xlink" xml:space="preserve" style="fill-rule:evenodd;clip-rule:evenodd;stroke-linejoin:round;stroke-miterlimit:2;"><path d="M512,192.614l0,126.771c0,106.307 -86.308,192.614 -192.614,192.614l-126.771,0c-106.307,0 -192.614,-86.308 -192.614,-192.614l0,-126.771c0,-106.307 86.308,-192.614 192.614,-192.614l126.771,0c106.307,0 192.614,86.308 192.614,192.614Z" style="fill:#00f3ab;"/><path d="M280.883,172.544c-23.281,-29.625 -58.939,-46.954 -96.616,-46.954c-67.41,0 -122.88,55.47 -122.88,122.88c0,67.41 55.47,122.88 122.88,122.88c32.677,0 64.041,-13.035 87.093,-36.195l-76.8,-76.493l86.323,-86.118Z" style="fill:#011926;fill-rule:nonzero;"/><path d="M260.608,273.92l32.154,32.154c8.102,-14.792 13.02,-31.117 14.438,-47.923l-15.155,-15.155l-31.437,30.925Z" style="fill:#011926;fill-rule:nonzero;"/><path d="M307.2,258.15l72.192,71.68l71.68,-71.68l-128.41,-127.386l-41.779,41.779c17.084,21.592 26.363,48.345 26.317,75.878l0,9.728Z" style="fill:#011926;fill-rule:nonzero;"/><path d="M271.36,335.155l51.2,51.2l25.6,-25.088l-55.194,-55.194c-5.714,10.715 -12.997,20.518 -21.606,29.082Z" style="fill:#011926;fill-rule:nonzero;"/></svg>