<svg width="209" height="218" viewBox="0 0 209 218" fill="none" xmlns="http://www.w3.org/2000/svg">
<path d="M87.77 12.3855C92.4528 -4.12848 115.859 -4.12848 120.542 12.3855V12.3855C123.848 24.0434 137.926 28.6179 147.453 21.1295V21.1295C160.948 10.5219 179.884 24.2797 173.966 40.3922V40.3922C169.788 51.7668 178.489 63.7428 190.598 63.2843V63.2843C207.751 62.6347 214.984 84.8954 200.725 94.452V94.452C190.659 101.199 190.659 116.002 200.725 122.748V122.748C214.984 132.305 207.751 154.565 190.598 153.916V153.916C178.489 153.457 169.788 165.433 173.966 176.808V176.808C179.884 192.921 160.948 206.678 147.453 196.071V196.071C137.926 188.582 123.848 193.157 120.542 204.815V204.815C115.859 221.329 92.4528 221.329 87.77 204.815V204.815C84.4642 193.157 70.3856 188.582 60.8588 196.071V196.071C47.3637 206.678 28.4277 192.921 34.3459 176.808V176.808C38.5238 165.433 29.8228 153.457 17.7139 153.916V153.916C0.561095 154.565 -6.67183 132.305 7.58683 122.748V122.748C17.6527 116.002 17.6527 101.199 7.58683 94.452V94.452C-6.67183 84.8954 0.561095 62.6347 17.7139 63.2843V63.2843C29.8228 63.7428 38.5238 51.7668 34.3459 40.3922V40.3922C28.4277 24.2797 47.3637 10.5219 60.8588 21.1295V21.1295C70.3856 28.6179 84.4642 24.0434 87.77 12.3855V12.3855Z" fill="#063A4C"/>
</svg>
